<mxfile host="app.diagrams.net" agent="Mozilla/5.0 (X11; Linux x86_64; rv:130.0) Gecko/20100101 Firefox/130.0" version="24.7.16">
  <diagram name="PÃ¡gina-1" id="1VhOz7PO_4HpHr8N-v7U">
    <mxGraphModel dx="1195" dy="633" grid="0" gridSize="10" guides="1" tooltips="1" connect="1" arrows="1" fold="1" page="1" pageScale="1" pageWidth="827" pageHeight="1169" math="0" shadow="0">
      <root>
        <mxCell id="0" />
        <mxCell id="1" parent="0" />
        <mxCell id="1slNe64gq0bpDraKGNJo-1" style="edgeStyle=orthogonalEdgeStyle;rounded=0;orthogonalLoop=1;jettySize=auto;html=1;entryX=0.5;entryY=0;entryDx=0;entryDy=0;" parent="1" source="1slNe64gq0bpDraKGNJo-2" target="1slNe64gq0bpDraKGNJo-7" edge="1">
          <mxGeometry relative="1" as="geometry" />
        </mxCell>
        <mxCell id="1slNe64gq0bpDraKGNJo-2" value="" style="rounded=0;whiteSpace=wrap;html=1;" parent="1" vertex="1">
          <mxGeometry x="140" y="204.5" width="170" height="100" as="geometry" />
        </mxCell>
        <mxCell id="1slNe64gq0bpDraKGNJo-3" value="" style="shape=mxgraph.signs.tech.computer;html=1;pointerEvents=1;fillColor=#000000;strokeColor=none;verticalLabelPosition=bottom;verticalAlign=top;align=center;" parent="1" vertex="1">
          <mxGeometry x="220" y="229.25" width="50" height="50" as="geometry" />
        </mxCell>
        <mxCell id="1slNe64gq0bpDraKGNJo-4" value="" style="sketch=0;outlineConnect=0;fontColor=#232F3E;gradientColor=none;fillColor=#232F3D;strokeColor=none;dashed=0;verticalLabelPosition=bottom;verticalAlign=top;align=center;html=1;fontSize=12;fontStyle=0;aspect=fixed;pointerEvents=1;shape=mxgraph.aws4.user;" parent="1" vertex="1">
          <mxGeometry x="160" y="229.75" width="49.5" height="49.5" as="geometry" />
        </mxCell>
        <mxCell id="1slNe64gq0bpDraKGNJo-7" value="" style="shape=image;verticalLabelPosition=bottom;labelBackgroundColor=default;verticalAlign=top;aspect=fixed;imageAspect=0;image=data:image/webp,UklGRvYrAABXRUJQVlA4TOorAAAv/8F/EGpR3LaNY+0/dqqv/CNiAvRRah8+lr4KAlNqyMElcJBehKKBcsJij9Wen82BnbQFg1fioH1HbUFIQk/FNP+/sr1t/M7yKjSNn3NuyWJZZpSDzyso1/e5bkOZmZn5XXF9/65znet6zlXyCTNzNCfMvGJmWGUGFebEVsbxLpwVgyd4zVMMMz8ph3lV7oo5aBiaeBVO7NUTThR6AWXmViXHr6DckFImq9xwNJ4Jk0PbzDCTw5wVuh7vPCpzK5e59TLahcEqhmccxvKKmVtnyszMzMzMzC5zw2goBDyaymWu5ylDSCnXZSbtytwGykxSGeyO0pmUVWbuCgOnpF251a7MzMzMYJUZlCmvmCm0oiUAbhpLykFmOa6yHTtJJ/0/R+v79Ofybj9XpYdhmZmZmYGSAEiOGql+IENFVINYv6f5ZK+hI6rxIIeT94CkkfkfEmjbNu2mX7Ft27Zt265t2wxq27Zt20bwa4drAuxI265scrNblZYgmZmZm5mhppnpn3ZzDzMzM6NY//+cU+d89TkXhl6DI5eX8judHRjfNXSo0NSqLzKF3oCWMHI4jjlSZiaxNLwAM4QcOnLMkLuUTmRegCKznfUyBDtQeQvC1Ni5Q96DahYg6OolmO24q0NvYeIupxOb3aEZMi2gU0cOFZvtyCEz2x39m1A2KzAzRl4BQ+byFjpU5KpTNZA5+sqhF6LMNZljb4G9gEldA6FsSbJN2/qh83aubdu2bdu2bdu+27YPt217l2RJtk3b+ou1pta9z7aNlm3btm3b6l7btm3bttX/CVDV+r9a/x8u+hT3lWox1erF9uih/41jgi1GQvrKISbas9nSQ/YJBUcVL07pzBCdTaJiihcPIQc12yyJHY+RjGQk9MGeTrFibbpcin2pZbeZtQENdiV0GEWVRukyAg2g0HhKzyfQakLvptBpQt0i9CsKf6U0NhPoN4U+EuoRhS4T6AilthJ4KaFnEnoUhXuHoGJKJ4diFRoK2T4Va2VfJ1keaIzmdmlUn8cm9DoKH6XQPQo3UapLO/nHCfyUUmcptJFQ8wg0iFKF31o6KrtkuVTyUZLlUiYUZRODHE/ovgSuJfRBSj/8cS3aH18JhffPgiL3pDFHp6DNknVrka8xvhBrLxJV+tjTpfRLSnVosRPqP6UfU3gvpeeGqB7FOxfblULf4dgen9JjXoJArxO0ixL6H6GvEKqh1uQpO/bXJzi2UFACgcYSag+l32l3JtBPAp+pr9nSup1A8n1qcULPoPCNBO3ulJISehuNrkmRu3qyrgsxcCqFFhD6boL2hBRun+72U9xXysm3UJQmDS6ZLoVbtZek1PfRFy8m00I5m1x4Tfm191xNTKiqhyLJkl0ayN/ndyZoj7rw+jYuwXpxau+uveyPE7g+eegYyq1lx0C57UvQXpfAfyg8JRVrZXn1wp9Uo/bEBP5M4eHl9BNZOTUwSpXfofbMNVIoTkaFmGMJfF97agqvialWl03nPHrttRdOWGVJpdK6nYBAvX5ce/Cll46+ljw657vW3pxAb1uTRQRVJKGatXBDzCRnlyIpYp8y0oASKfOIVGnMQ6bOY9IMxzzXc6UbzsiXJh/zXM+VOk95yId8yBIlSnxDkVCsEYlefw/lEI0amV+LMHnskTKPSTOckL6ckaHMyVhXlD1eUe50S/nTAxXOT1S8W1PJ8kqm9Z227D9p6/4beyvbf1Dp8kYluw0V7l4of36kvOmecqYbyh4vKbOuyFDn5EuTp6RMQ5LHLs7SmlLr6dhTlD/p1rmEwKu0k0OsOc5C6cs5ucoZbyh/fqCi3Zpsbdl/ETi3QCXLGxXtXmh32eM1Y87798c5HGdoQt8lfTaSPenWUqEl7UzKTMo0Il+u8uY7Ws20fhCIdXUV7TZsoazxkrzrSBG78KYp/ObV5U6yXCo9sOa+mQGV/MHTOeG2rt8EAl9dq1vIk344J1Uek5MfTSkpgbxlzlgJdV5zXUbqk3Y4pax6SQXzI5nWn7R1/41bFq14t6Hm9GVGitSHE03hXxcvb5ZNoH2a2/jUeUKu06ls/UngvqXKnq55LhoND5rCrYRKkTYEXqz5jC+Up8LdMwUC117w16dOEzjQ639lSbNtzWORj253ZesHgdv3J2Ndkts2vUMSqmApQ2L2W799RcqsC7IUDTxhW9ZPvr6MOMAuTaEvry5hxkfpl9ruAZU339OjwDs2Wd50R4o0wCZN6FdtLpWufPk0be8ml7ihoTGLTvkb7NEUPjUw2ULhiARbHvmrBxoatEf15LRFE2iyZNk4gR5oGzf51SpdXA2N2vdUeYIthO5ci1y5cG3jH29t2HryqcH1jqflvC5uLavtam3qZmvubGpsKaq2PC4I3pt0/BF+sguCwjlt0IRuSR46hjJlfLPEvbnGsPGnyTdz+vs6VmfI2i6mpnrHUo/ex0tywc5TpgE26EUm69YiiUKQR2j4HW9tWH/sQT5Zz4vGlgdMW4fFe6LPZBylu4fcgh7ltUETur88GSulpLCVmn6u2ux2pC7u1vtuiR8a7zaRPVpaTjk9RG5BkMcGSv84Z2lCmLtr9MpNvwzrj9zNw/KoYLXGkIkdU+wP3J0oueAhmoDppcuSYqeAKmlYf5RuHg2/lZvwMx8uuaDp3DC9FklCmQM0OF05I7D+yF3d89+XmiwjT6VLLmg1N4zAz4ciR+YLqiUpitgLmSbT8fVB1xVRkgtazY3Sq5MiG/8bTHzFy4agmp92bti4ygAbc3Ck6zhDfCUXNB2P6t2TyZCeamzzQTX/RldLk8l6U9kF5U93oPQLyhAKTcWkiD0KRBGyL8lkvlp98NSzQmUX5EJ99QtLkKfB1BxU8417d7axM5v+rpRekDafAtKErpAfx5YD8g1Fo3BZHmVyeJbjD/eT3oKbAdVYTHoQuEhD8wRRbsqDGX02Q3rBq4L0h0mP+WIqXd+IZmCwk4s2slr5BXlBhNosPQh8CZImHxNEeZLxgSaXowv9K+SXlBuz/i5IjtiuFK4NUjgan01xfJgnmRAov6AwRlO6THIQ1rYa2lQ0MeczOfFYG6MBxvSyGEIflhxvC3nEINrU27mcBOxM1ADBlWIo3DpWuXG1kF1EVf9xASehB5K1QFv3XzQD0a8sNwi8AZIrqvtz4r8jQQsEZdULMH8pN2qCvHRUMecyOHFbGa0JFhwPofQ1uUGoF5CmovLeGMfJicYEaIJgopD8MdXqMqO0bidYPyQpqhOPDeBjZKb3G9rgOCA6Bk6VGb+nkfFB9AMCnVw0/19laMMFYyg9SWbQWDlBSgCyXxVzEX4kRSME64DMQ2Y8PiRVngA4/YJwHsaWB4410Ecr7BRC6FcyIwY5HpJ2OAFgdDY2cpD7tsTQiqcDyb9xifG2kHkjvDbEsvvT9zRDNogeicSYMyR9mYMwWolrmKXdyzO0Y27I8CQGhQdCyqwLICcaGzAi3cuod0fr0ft4aYhCEBKVLzEoqmGQXBDDZ3PctkxG5ftOMS3E0JB5Id2VGPcMaRljRJxIYzGuOuixNsbQkhnKHMiLSwwCj4OUNV4AMjbcFnatKxqaMheEUtMlBqUmQnaKMvy3J4zK9YEGBjpPNy/c0JZlj1dAZiExrhaSB2acdGJQe3U9YrXGUOHnsp8YGrPc8QYIpRdKjAnxZWwcsCOhV1urTe1UdU6LIwzNWe50C4RQi6SRYWzsujLqtme3or+vI/Np4d8MDSq7DMPY+PmHJ13PtjwquE3Gg/z4S1kfurChTSWY5q02aI9YQvBlpCGF8l5ppvUDf8MVQzGTK8nn03pQpfw+3Uym5Q2/T59+Ub9Pf73v9w2+n27a9ytnvML3+0k/gEBj3S2vH0DgKt9v875fbFcKKfzJ71M/7vuNr3d+nwpF+a/f71O3S+Fffp/aNIEv+X2q2O3u4N39vcOairXySERPqSG+h/hrrdZ/h98W6UuVTZOQE1+QwNP+r88tEerk03Sd0i+94iyl2cZjQseNoqp8BUJf+RDtkeVTI4//h1+7fu2lJdNItt3nxrTXlkkkdvR3R+mH2otLoye73T4TqE17c0lUP4Fn/4327FIoJv1v+oeU+qs9vARK3nctP60B7emlz3T+ML/2+JJn2V15d+35S0qdtyf0XR0HbF7i/GddOk74qvKmtevXccImCsiaZN1a9LcN6LhhmWVJIGlS0GYEuqjjiEVuRtLEBIcQqlnHEVs4ncDNYg9BaBlxTFjMhGuW+cESv3LLxPfMfGqZNyzhtGUeZMYWy1hgmQOshowqWnKMPBMkXoDQ/RvWccSOlDc9ELgZ2xhtGXctE4cysY0J95i4KmJWsYvCwd1iu1K4Qh1XXElTgYsd2v9BYJljmNhlHM3Mj5a5khlZkYebCq41FALt0HHD5LFH3grmJwKB82CJ443zmfHbEjZFFBP3/RhErvTb/6D5Hc7ppx1OyFAXdHgLWbI0Vcmy5YS9Z7bMgdg5iGwxPlEAxhhmvGXi6PBTScd9UrFWpvQ5zedwUucJZdYFWygVxOHZ1W4ZD40oLeO/Ja7bK8PKZX57cprHbyhZfYEgjs+ObUw3AmVG65tH3NRykxduSdv/WhnLko8KJCA7y1wrEmOY+T0iDo51ELtGfym8XdueZjihgvmBzIEUZMfEx2IxxjLvhE0/t/hLbXe+UoEsZGeZP0RjLLGTmbX7fvwh4wqzSrApX6lAHrJLFI4xzLxZxSnauECot/sOta2FPiqQiTIyTPwZFjKFtzJKvdd2PmLNgVyUkkl8ohmI7ckIfEnbmX6YMffABzDmApYrtMfWNnak3PGWQDrKyljmkT2+0ZYX2E3ltyFlGvJRgW9gLPFcVdcaysJKt5YKFHqm8fnGFPgIhplnuyqqFWp8mWVBICUlZphwfM8f/1tWTB+WgMsT+A2GGRtnIKJGCPRaw6808B9MxBwrIgKN1fAfDGRSdsVkV4XtGctSvyAZWUlNcXyII5wUbEcfrXYSaA4KhhtTxPN724LlCaRSHobTnJpJSUqki7w1wMqsp/KtsBcOoVdodD2BjFu7Jc8RTvSQazbm5vb88UMVwYwmP+q52rp+I+2IchsmMUKeKs3EWOJqwRD6uAbXkmn9IJB4RFvGh9lNqlmYTxRKiDlWgzvS90DuETnC2ugMAsWACdK9MvRE8g+ocqc7AulHVO4m0zjDhH0CuUUNTjucEPgBlFUxfgbAmRMTx9JBuStd3vEHaMuwFsQ11FVRUPxv3jCo5sAnIApvR5hhwmRRUKhOY9MMUwL/gPaAXQfborUYukCg36Cd+wk0AWUsY48YnlJjPzrwFbYMNAPKRJR8hUDpC5icJ+wv0Me91BrFxMMiWHIC5icDn4GqXcQaZCINAQIg9AQNzZnNd6D4IKEs4ZgAasSkLzMC/4GCrAgyESPIcTGoAjV2536E4x8gS9jlOAotwAwo8CNoOqhg+EQLp1H6MaZ6f4J89YAxzJjrsH5r6GsV9SkycuIkUJj1VOesbWMWEkjRH4T8oeAoxAEYYwm9nUXgnZgHlCMtQ9YuusyiOAkVxhLuO2rZHwKpJZCjNwu5WtFRaAtiTFjR00kh5CANbVmSZChzIPcsvMyicRYqDBPrnETgcZiKljWSJB9kzsKjUsyQF+kgAh2DFGlSkqRKIyAkOF18lpxg1Cc6J1m3Fm0Lki+QpB2BPIv4yFevMctyTqi3u4bWLEna0NDkoWPoAolRxmTfG++pOWZImGySJAtk/bFdKXSBvIZxl2uIYWa+Yyi8CfINgSTNWC+A1KhcgPbAMHGbY+4QMm9Zcp+QO3eFp2Is8VedDum2hv6gJCmQE9JrVyBfHUCMtaVkh8wK06okyaKhPXaHGD9hFugQCs2CxGeWJOnLHEzj7uCogjChJfYQhM5oH+Q+Aznao9wQQr9S7kD+JoSYyEX0cER/twWpR5KUPz+gof/qFnEBxljCcEecu4Y+hCSZKIZElVazyDNBYpAfL4isshwAYcYJR1C6DJNpeUeOnHALkIT6q1kpSJVXiCBoT8h17P1TSdEJhGqAvGwgR0tqKKVvq2p+W5CqrhFRRHsIYu7DCd8JySdHbi8eQ6CxUUTcsINUfSMhCkteMLkc0F8C/YaUM14jRxaisaWjsovCajEEsn1RkLtcQZ7TAdeooa1KkUqWV+IxhLqjomQt5kD89FoYoQ6EMLNjzx8/VOFvVpD4zFJkQBp74dEwcRwk0ILCOBRiwkIsf1cLqS+QoW+ssRRuTdlX2tFYwiZIWCsKY6nTfwU5I/5eF5KhzJAhC/4G0COqaJl4GxLlIWHQhyDMPMPfV0O+XoakHU7Q4FeKJjsz/kASIiyO8DaEWMLfRfKW7MGsmgCpcH5BghTWYEodUNE+nIGmZ1gciRGGmGPhrTUNrWz9QH40HY/qRFSsoQTjEEdWWTBMGMYbDS6BlAikZ6kUsYsGt09FfYWQJ5BAPZUaYhl7ebtayESlR7ZaNHot0f0MpEIkpRBLbOTt5SAZ6wrZkVSfRlPqrIq6ipYcDTTCiSKZDjGRU9OEs61AtiA5sqVMIzQ6xy1Gd6KYpBiLpBrDjCy+BvZdkAeUG5Uur9Si4VesomfCKYg9uyoioX9AmDiLr/ZoaJLUWNJraTilpKWjrxXdXrXCtCCkloQaYAbIKPiKYRUOSZH6tHX/jcyccrzG16qiH4yBhreiWKLcCDmr2rm6T8iAJMbq+qFtnHBp3U4Q3QyY+QJzU7GkJgViIhudueo1JEOZIy8e4rW0jQtfmYo+vMVgA3USqo+L5eN2iGWUc0Wg1ZDCsqKNAWk7cwxPAS1jA8bPCCTY+RBm1nLVPkj50wNyoo2FDEfb2msFZFu0Xjkmxkei+QHkI7lqHFLRskZG9Oe94rW9BD4zMMQCDfSAK4gm1k8QS/zKUzEKt0IWLB16dBaFtN3LrF8BN1UDxt8AJNr0jEBMSxxNRyObCOTiCdecrpzRhLadUtIbUEhmLDXY/YWTUzdfhEyao15ABiUNivan+sLpy4wSmscdbl4hw61hWwPmUQ7h0HzIEXP09pBC3uP2mn7pcsZrWs5Q5uTLN6DnctFCp1+iSLzmteGYqCQF7ZfBlpJ4g20AscTtHBHkHEg+L3Ez/1143seZU3vcHN+moGGnPANOS4uAFkMs4RFHXYHMxCtku9LbP07thRuIYS5Q0OqY+An0IRJwSoIhNcQ6iPm5WkjznmDnGeuKlHmM9sg7jEGOV9g3N+BDRbQUYo6fH0I1QGp2v4/KVUJ75nenzAEKG9lS+MpBT9hSROQqVZBwYwo/o4d8lssVuNKVaA89xU0r7ByY0WTAMV4kIU+EMGEYP4TaA6lwfsbVbi9Xbu2lh3hsCpv9SAz4Hw8R094Qy1jBzwIgO3exUnnjtZfOQaHx/VXgJzLoMhJztJcglnmBn6eB9Me1Mi1vlGxBe2pKSUPMsQrNWkxYOeric+tGUClxhljGZ35qhNyMSy04Q52TU3vrjZ6zQke2wtsSfxn0VknQmSWBmOq46R1kTK5UtHBu7a2nGIpVhoKzLVozocWgfXVAwnYRKcjWuZklJHDjKzpO7a0bnsWnKnjVVwptS3xm0Pb0jIirFhJ2SuLm3RHxLpRUUnvsfxiNwue8KgPfm8QdaAYIM/pwszZER9wny8tqb03ho8+ibNzLpxsGt2rg/8iuisA2g9wxN+tH5Habonla0J6a0Mc3r+z8v4YMPjHKJPAfQabETX73W0192kuvjdLLQr3dla1hRc95GHyQFUjku0NehJdiGvla7pIlt/bOORawvU9V9lpKuWdl8O4y5RDaNSHnxYtKcLsOt6C98vQJfXhI9SubI88ECTNrjY32lKSQ0B0QS2zPzksDiCIukvmZtTf+rt1fLYXiGlG2V+FDIyZcMnbW60QSvLNIIczP8TJ9RHLWuEfSgLTXzUGgRkJf2cGEaMh5pK8clq14/MR5GDtfuqXoPBQa0gwv20LEu8bNpMxjNL85KP1yo7Mg0NgNby9EZ79ycfccfEy0Z7M3EIrSVPxGzlF/SsZWd7lamocRvY8OIOGWIngZMYJG4xbZUuYRmlNKP94xicqfSCPK22bv0HqMrY9KzzIJP9ACEGbm87JwhG7r+o07ZKtF8/g3FN407W4r72uJkZZx1dh7wE1J/LeDnCgvXw1JcoUF16Ltz0+pQwQ558mUB44ohn6hsTvGRyTBXSDMmMrLViDZ3OBm/kfb3vg9Jw8dQ+WFV9IvY3slybAMYon1vEwO8lEukJQyj9F2X/+0061zifLA4at76pZY89rG/tvlYaSYEGIIM9fwcteQpsXX5Pq0zT+57WUr79vVcGOKJexiYpvhMNiOW8ohOUYQJuzmpc+Q6sWXoczR9r77Uw5Med6Hm4Yl7GfCP8Nl6ZYkx3JIv3gh9ApIu4X3g9peSq3/PeVpq7rWUGYXyWewd2yZBy2x0fB6O5JlRk4gL8LLLCDlTNeILkuIGVtqpHCE4nXouzlpS+htieOZOaM2N72MKTFz50feapOG60qS5lyIZT7h5a4gGesKwS3qtbSdox+r4rA3uznRy7iqfzDe10mg9id5OiBMfM/LX0MylBliK5oqT9A2ro1Shcr2GVhueD3RF/6D8cYuYp0cZ5JoTs1AroSX24XsQmxljRdoGwn1aNPK5thDEFothjBhcZPGM3sqwZJnkumWEGZ84aU1SKo0Rmit5rSBUrsaUfZWfj4wPiNLeGc8dIUjDyNXO2IRvPQb8loiK1BC4893YMrWYstaufHQJVFeItlWIRrlZSgQnVlgGcsSjSf0jNK6nUDZOAMmplrCZeOp7zGTpDsZUS8vitDfIJUsb4hr5y3AcnRX2bmEzzee2n677Joh+bpIFMLMgBdC34VkEVZb12/q0/CuKBurOCdzJh4y3vrS5STjq0Cy83L0kHLHW4RVs4b3WuGX2+KojKeevMsckvJkxMoVrzuG5BJVZesHrwUbv8IfCxPuGW8dZMG5JOk6RKPcxNCDIeMR1c1q9A76C+vNugsaTz24cpK2Ql4XN7OCpEpjBJWtI6hPHatCt8bE68ZT7/0ziZFmlXduQyBMkHJzi5AQawRVUoMJ9PMGFHrSlvjVeGk/A6xHMv845Ly4mQ5EZxNSpesbOUEJv6jAsQ7it0w03nly6UyS+4YQS3jNjaKUFJJFSBnqAg3+dAXu6hCNd/5QjI8cJPv6eYE8Oz+EOg/ZiYhW1wRoKy8MWu+pGq/sodQRTjyMNGB6RiDMvMgPoVdAyqwLRJRHY3N0QmHn8NrGE5f8K9pD/yNtuB6kVn4IPRSSZpgioMzfAKLQEoV9uHc13vcq/4pw0pcfQprx2RBL2MQPoVIguQX0WRpLoMaYanXMpn7GeNkDdp5YGunGm84lbRkbIAgTF/FzAxCdaXlDPLsAFVbQvTy1NC/Y8Fk3/2kTKi9eJtG4ECVG6Nnrlb9pKWnSXSCWOI2fZa8f8t/CaUNjCXWntG4ngHT1+Q2H7jIVYsf4EL+piHTE20GYMIwftS5IHuGUPV4B6plCPhUzDxjb5y9+E+mNFZCIUMoRgVZDJiqc/8Fspb8Qy1xpbHYRqVAHzCYd8jEQtjGaow1DSoimkuUVje2ZQk7D2PuoCRuSLukm05DNcPRhEL1gwRTGbKUYYuuN2nITlVkVQ/pkXsPUQXrFUShKE1O9YFLnCRhK9VPAvX8qKe7M2Dm4eyO9slohR6V47h0kY10hlrnnhFC4tXT0tRBnaGz8l8fMKi9T4gyxxOdcTRgyILGUPz2goUtXQCYWGhv38bmCQ/qjTVaJWQP5Mq56DWmiqFB+EvPKgPU+nMHeRaRnhrchhBlLuSIhJ0J0xbsNQvkfCKE/9BdgGUsU3EmoEiJE+maACSDPytVQMTWLJKkFCIVWquiXWBA2eT3SOT0VGvKJXCkKv4GkH2aIZMUaSkPOiy775xu0i1jPJp0zuyoKGnZy4uscIWWkISIpDMkx1OgiRk+DvspfSO8shyR2la/dQfTqBLJoyNOoqOu0xEZUSWqSSfesgTDxveI7hlU4psL5CYH8D4TQM6LrkAHbH0H6ZymkVs5+u2FIywJJzhrI20YVeSZIGkItJh30Q5DP4UxR+CbkucSxYA2NYXaOiilVGrC/EUgHfUgJZNa87RiSWxwVLWsg+YcSzb4fg+jmQC9eqoeUK+jx8/a2EN2UMNoN+VUVbWRDtsHaF5EeGuUmyFKy89Y4prAwvh7yElFZxknQW0gXrYB8kOL+qyFphxOE0TJkx9EMOxGzZKk+sgRiifX8PSKkhcyimAnkaqNhxlSDjQ0w6aKHKSgz8/nrIURnEUX6MgOyu2jeFeOl1lvqIzWYTfF3A5iMdYko0g/nQEJUjygiW+FtsAlhJn20AvIzyoFfDSkjDRBF2uEMyHdG8TmYdjUmR+quDWKZW53wjRBdyW6LIPoBIVRKFJZ5B3Mgn7fIKkfXaaARxX5O2CRmp4JYH2QP1WzoiZB/uT5Jsn/vN8FYbng54cNyQFKmIW5xbgZ6Wlkl6XlDplK7E9SNQnTfXcISlmFWL0lGbqBTUo58bMyYXWJnkHZllaRrxzCz2hmbxySPPTK7QnWJkP15t4UseV8MczJzRrFLgejy5wdcIbzFYAM9yO+OkCTPOn/IzSmHUmgO5rlcoUOQ+R/qP78gSeowUGY2OIUG+WL0uNzgYiGDyypJ9+2VAszFOKXYMjEZyhw3sMwjkNYlybPeBGQRvXGKOjtMfDYXuDlIDyXJNA2UGVuUY28Ro3O5wD9AVi9JtoWJNBY4R60LkztJeNUZ6DHIkf//eAgT23rloHvH6FzCaw1SW1Y5unYDtYRjysHjo/QPzHCyiS6s6Am5eEkyOIxl9nCSmi9G71p0u4F4qbQ+klkUOyT7zzlqGCDdlODCLUVAfHSgj0Q4SUH/XTmbQpdBqdKYomK7D8hL9ZF7YH7YYb8I0oXFdjGQABPoIosUdFR7ZSg5rFjXQR1pw5f4AYYZG5XTach5IF0osw/x8cmYSTsuWbcWUegJSOfyIcoUdCr7fvwh4zhFokpRuvzpEf+hFsOExcr5bbpcineJKtKG35CaYoW1WgwRgPpFlC5xMz5DkA0wW4s9BKEIVEsonSqNSPIVrlCFscyZSoibbhiln6tHfkKlwo5QDGqFMJ06TUjyDz6+BPOFSpAx1eqUksL0cWZa3vEN/qywllkkCkXpMpwuMRGfYL97YJj4ravCUOeI0x2Zsj8QH2KFbUKJ88MI1IjTOl+SD1D3lWASX1sgilApdugSw5B/azfYI1FC3a4dWg+okt0WyXd9TwQ6cbGMbyu2aBrNe1W8bJF6NRmsJT7LLhbVuVnaorV+yC0UlXbHUxvIMvoq0b49gdps0jpF6pOhzPnvAnJu319vYrBM/FbVtYaycNS926a17sguClcwP3HC0m2dBsyMCUrAhGrg4LANsaa+iebNUBfkKlyzjRuTSw1uH7SeKp9sa4iotG4noPQyThwqcfbnnSYGfIFKyAP7Px9inZcJWkrVVwptMamBvZPvcAxPZMB3rES9bALt8BmGuU8vFBiwJX5dqbDUwAg9w1/YzzebGDQT+yuRz7kBH6Emg77bRQpN0ZijCf3NNzigT1oY+CcqwZO+cqD0Q59g1Ab+hUr4Q/nLHD7AnAMV/DpGKD6lCKpISr8TTgxyvHS539UU3hJHKVfsAoXXJAimWdny3tcq/FVFngkSd1Dqu3cvlIShypWMrOypGNYbuYgeyj1v9/oFcl5KppQHmsGuWJ6RctMXfsEahbE7efLU871Asf2yfT8GkasoVSwUHDXdBCH0jo49RSmypSXP771drWK9iTko9930+AnV7LwcXVbudnC/tDnQL46oadTedpef/WHvYBvs6S7XJYrDeiOKocqVB/atOyb0B2cl/JJyswZrungTh2TCMOXaxTZ/z0dPKaljdhjDXKDcrK4zN3HJx1Uuf421rnDChHr0Xdzt8HwbV27W3qmauOSkane7w77+Tsyq1m1TePiL/+V8P43HT9/wHhpR0UvlEH5tU5uJS265NyqOKJV/M3HJF1mtki9vauKSna1OSZikuIRl7tgb/yanZExV1xNxCGbMnYGSMQ2aOCMT2yKK/VSc0kUO4fc2cYatHYuSNHcaV7CEzfepfL0mw0KminPKlXqZWRs5HagqP6+gJWw6fhUXlSc1MGH91lXcVJZsjQmThq7iqlJkHgtcQuwhCFXcVXpchyWeOyMmBNau4rQyg5kfmXieGUsjRs+jqVPFeV1uIm/pRT+nxRaZ2D/cYkUfdhNxw647Ko7scpbxUvmA1frv8PuwhNfrFX3tvof4C57X3Gcc6yD29Q7rBUcaYvw+U/BZ/T5jLKG378fEtnX4fWYUvp/Zuu93xL7fDfh+TLjkByyVm2Xc9QOoyvfz1YHvdz7fL6dm7tHvowP6tIXvl3Wzvl9jrft9WbMu/8z9vqzXt/jzO++qbySqvJoQvb/hil9arf/8pwJGNWNFK3a342RbjrdiZ2MW5zP8THTNWduTX8NJX50Bcx3H0z2YiK68aMQ8XSpiRkH8jKAZ8rBsx5nhZJjWHzIQ/+as5+JgfzoCYpk3JEbY9IPsqRWas3oYKSawH04Nmc7B/0IeR2KEnZwg3mrQBnlYdObBavSZ0LE0tGYvu5lDtiwxWoO4SbUmyGd4X+xM9Gr0d+IWsy5D/l1i5ITYizTArP64mQw784jVYiCXITF6UxChLDnRAL34b7JcncF2nGWUBPkciaEagiRGSH5tOWGyHU9HU5azOW9Ih2RGZyFnlV5Dpo2lmZE5jNR8hrForDZIWMiUGcxYCnmM9PpgZTLvxG0W9RhoFYabzLCMoRAngcquGMk1ZsEkdmOovTeDmULq7Y7M6ANETZfcC00OO3KNwftCdqZk5m0lQt4ht28fwcMQYnD///GQuUsNdcGQL95Paq3YZfI4ryEzYF9ioC3KDUtYBlERTpRaD75yYbbjLKwVzBLlhmUWYVzEOrsqMhtMGB+9+INavYFeV+1yo/LzgTETuyCqUmajqeRjEIGo98WMUUlOZlzBTF4qry0m8fF+0OoNdniy40Qx6nbyKmCsyecoikH/hik4dNkxh5VjVEqcpVXAGE5GUoDpocH2S0nPfoGe8HFZbXE3Pq4D+f9/Af2W/GBGGUjtLSsaTTkfA/CC7OsrTQz2OtYrP3rDzI8gVSarQYTw0YPviOs14AUqCRoxRqDq/i+p7rznow2HAbMjZ4JiDa4ypFfrAaklloLIqSVbuJhUyATbnvoPA7bMI0qKWuJslLrHXCnNGk0FDwPxI5uL76HQETNKjsx+EShz8ZfiRtSdDzy05ahNS+cr9PMrScqEYTCz1zfJEt2oAVPG085uBHmzbCmuVejEdcuSRTLzKczsevUuROdg14ZDZON5dlZwZmxU0vRicGb+XXahAkaPpJDVQHzJxtQkX0XBR1X5+cBYnqgx4oxpvTHXoU+sRg+bMdS90obz1Sm8JY5XEvW2LLHRBnPeh/BbG9ehDlyax+Jmm5PV2VUJsqBi+JyLlCnqxBNtMLXV4Tr02Xm48XS1Zh9ZvchdrhXDRkeo5Coza+0wZt9fLTjkP9u4DXXg6mr0osbSeCmy1hHWgopph5Rk3Rv/JmeZd2wxta29bpehzUdRhhlK/PPI2t1frJiex6H9HwSyRU1mHrYYc94H+1Mbl6H3TRtPt21HvHUWWZmRFX8DKLaW+HylSr5+wKjsMeb079RdiBoysyc/Hm/dJbvwtIBxZGVxaAueQaAU26mctpKxj1bQJvPx+/VWk5G7C9G3W7GzB9/OO4Ya0zQPGUXpIAK68qo5a8ja+202WTGugTmFldaFbnI2Ig62y5j578drTf7WXda5kAm/IxufOqFEMbfEGiVrmTHVNmO220Y97mProp2+qNgzY4iSty3aZ4xpZZrDdK+Pl9UqDhMtc4CSuUwYxoMxu279JV1py5SklF5F8ZjIhF5K7jKxfyIPxph9eK6g7Aqyqa71czd8FmRmtZK9kcaCRvkw6oCJ0T4qlsfMyvmG11HNWsnfDzgvTpRSdl8d/KhaAnPWO9BdphS/DYW36K5k8NA/n5u132PvxAhlV0Vk1WU7TVY8n+oclByu0zI28KSUKpn497QUF4moevpH/qE4Z8bSRSppfG7r4Wrtk/fphYL9e7/FQX3fpkGB1P2lD3HrFyvurysilCqZPOLH4W3t8z/vy5rmS9btvFs+8K+O2N93W4y3yqsJ48TORk5NEyWX9/0YRJ3Kzt9hW9u/dX+a9TTokOura6tduIUXNg5tdHiH9n8QKOkc3qL7zzrjsL3Mvb2V2NdXCirPtqh4S27qvuWD+r7NAX/W4io2drrbNQ7+2dNWMjr2EIR/YRmfHXM4Vt3993+trHl2aoqrlxZBGjyelyy+1TdqPWm8Zz5/43TLaGZi99qVpF4pE5YXdJbVVS/crlZa+cu//MsrO/1t/eVfTqKVVs78X+ZvhFnDNWxBSewvsMRzohD5u01GSe73eRFv8/nhliKUBO+EJd7yLqc6aSXHs8/4OT1J4hjXrST6bqa0cq9R8N/Dip5KskcaLJlZuxQv8TPMnDFiJeHvc3hX5RFqsMTt75NdyfoqWnJ8y3m4nyU+a7HKC+oqqd8bZmT9+3W42f3c8bpnoOR/V60tJVviukW40/2sejczUH5hnREz7Qot8avbdP2IR6h8xtpLtrhlJra5xTyYuG0aLSl/8j4jG7J73pDwGt0yE4bNbgbK1xx69cxY+uyJorLEX1t+lU50R/miQ58xMxtuPbtomPliWH/2cLGHIFS+aqyDuJlzW/Wxr1wMm/j3V5l01VcKbeXTrpZdJJ/fsoR5lnBsEw6ayngH/16RLYX/nPJ/7zO8xWBmlN3UVTPhEjOauBry55/a5/zFEmavfOa9fyopNrOEsFH8vY8wsFHcakMTAU3EMt4w4d4oBsaE+ZYx9BnYxuiwk1Mp5X/3qqXXLllyCZ3oRLgxpfqwU1InOnFtJUs2U/n5wHgLqlr/V+v/w3UP;" parent="1" vertex="1">
          <mxGeometry x="185" y="464.75" width="80" height="80" as="geometry" />
        </mxCell>
        <mxCell id="1slNe64gq0bpDraKGNJo-16" value="&lt;h3 align=&quot;center&quot;&gt;CLIENT&lt;br&gt;&lt;/h3&gt;" style="text;whiteSpace=wrap;html=1;align=center;" parent="1" vertex="1">
          <mxGeometry x="146" y="152" width="77.5" height="52.5" as="geometry" />
        </mxCell>
        <mxCell id="1slNe64gq0bpDraKGNJo-18" value="(1) Upload file trough frontend interface. It will be sent as base64 encoded bytes via HTTP" style="text;html=1;strokeColor=none;fillColor=none;align=center;verticalAlign=middle;whiteSpace=wrap;rounded=0;" parent="1" vertex="1">
          <mxGeometry x="39.5" y="360" width="170" height="95" as="geometry" />
        </mxCell>
        <mxCell id="Bfw-wWZjnoTn03Cb8_oc-1" value="" style="shape=image;verticalLabelPosition=bottom;labelBackgroundColor=default;verticalAlign=top;aspect=fixed;imageAspect=0;image=data:image/png,iVBORw0KGgoAAAANSUhEUgAAAgAAAAIACAYAAAD0eNT6AAAABHNCSVQICAgIfAhkiAAAAAlwSFlzAAALiQAAC4kBN8nLrQAAIABJREFUeJzs3Xd4HOW5NvD7nZmtWnXJkixbcq+4G4MB2xBqCCaEknBCeugtgSTnpJwkXxJSOEk46RgICeGkQUIJBAi9mAAGE2yDbVwlW67qdfvM8/2xNnGRbWl3VrOruX/XpUurlXbmsaydueedtwBEREREREREREREREREREREREREREREREREREREREREREREREREREREREREREREREREREREREREREREREREREREREREREREREREREREREREREREREREREREREREREREREREREQ5RDldANGQu1/0UV1NxXrSLNIMo0hZVhEsq0gprdDUpEiJCgEIAvArQQAKfgB+2fdYCbwC6Aqii1I6BJpSoguUDkBTAiWApSAmAEugTKXEhMASpUxAEkoQE4UIBFHs+6yQeiyCPk1UDzTVLcrqhqW6RdO7rXii24zpXTu+UBdx9PdHRMMCAwDlv2+KNnbU1kpLtBpdUCNADaBVKUiFABUQVb7/sVKqAiJFUCpv//YFiCmRNgCtAtWqFNpEpBVQrRqkxVJqjwJ2a4Ld0T61i4GBiPqTtwdBco9xv9o8QpR3DDSpF0i9JqoekDpRGKkEI0VhhIIynK4zh3VBsFuA3VDSBFHbILINmtqmLG2bFo9s3/y5STGniySiocUAQM77pmj11Y11GrSJUDIJwEQoNVEB4wGpA1TA6RKHNREB1B4BGqBksxJssjS10Uham7xWcNO666t6nS6RiOzHAEBDZt4dKz2dqnISLBxnAdOhMB3AFADjFeBzuj46AsFuQDYKsA7AWlHaO17oazdeVdvqdGlElD4GAMqK+l80VOs65oqmzVEiMwWYDqhJSsHjdG1kE8FeAdYCeEdBrbIk+a9yrX3dm1fNTzhdGhEdGwMAZWz8L3eMtozkAiWYI1BzlcIcANVO10VDT4AYBO8o4C1R6i0R9WawrOutdR8+Lu50bUR0MAYAGpRRP94e8BTKfGXJiQK1UEFOgFIjna6Lcldq1ALeEiWviVKvapJ8betV47c7XReR2zEA0FHV/WpbqUdhsShZIgqLIGoWm/EpYyK7oNQrAnlRmdoLW68ZvRZKidNlEbkJAwAdZNRd28u8pnmqQFuiFJYAMgNQmtN10fC2bx6D5UrhRcsyX2i8euwaBgKi7GIAcLkl3xRje+32hcqSswGcBYV5POGT4wR7ATxjKXlSaeZTDVeM3+t0SUTDDQOAC024s2mUZVnniZJzAHWaAoqcronoiEQESq0RwZOaWE9sKR+zHB9WptNlEeU7BgCXGL+sca6l1PkAzlfAHKfrIUqbSDuUelyAR7x6+B8bLp/a43RJRPmIAWC4+qZo46sbF4umXSyQ8xXUaKdLIrKbCOIK8gKUetCA8QAnJyIaOAaA4UREjb1r+ynKwocBXASFGqdLygeaAgo8GkLe1OdCj4YCj4JPB3y6eu/Dayj49z02NIGmFDQF6AoHPYYCLEl9mCKwLMACYFkCU4C4CcRMOfgjCcRMIGJa6E0IeuMWeuOCvkTq+3RsAkkqwQsC3JfQtQd3XFHX7nRNRLmMAWAYqL+zYbZuqU+IwocVVK3T9ThJ14AKv4bKoI4RAR3lAQ0lfg2lPoUSv4Yyv44Sn0KpT0ORTyHk1RA0cvttkLQEvXFBT0LQGbXQEbfQEbVSj6OCzpiF9qiJ1oiF5rCJ5rCgL2E5XbajBJIE8AwEf4gqz4O7r6oNO10TUa7J7SMfHdHYu7ZUwTQuU5BPQqmZTtczFDyaQk1Iw8gCAyNDGmpDqc/VodTJvjKgUOrXofGvGpGkoCVsoSVsYm/Ewq7eJHb1WtjZm8SuPgu7ekx0xtwREkTQAyV/FdHuabxq9HIOLyRK4aEyn9wv+viOpqWWyOVQcvZwXAK30KuhvkhHfZGOMUUG6osN1BfqqCvSURnU+Qdro3BCsLPXxLZuEw3dCWzrSj3e1p3E7j4T1nA8TQoaAPmdLtqvN11Tt9PpcoicxONpHqhb1lhjKFwhgiuUUqOcrscOlUEdE4oNTCw1MKHUwISS1OMyP6cgyAUJS9DYZWJTZxKbOpLY3JHAps4kGrtMJIZBMhBIEqIeheD2hqvrnmGrALkRA0AOG7+s4TSBdp0o+WC+Xu17dYWJpQamlhmYVu7BlDIPppQZKPbxRJ+PTAto6E7i3fYk1rUlsL4tgfXtSbSE83dYvohsFoU7LFPdvf3a+g6n6yEaKgwAOWbeHSs9bai4VBN1MxRmO13PYHg0hSnlBmZVeDB7hBfTyz0YX2JA57l+2GuLmFjXnsSalgRWN8expjUPQ4FInyj1G8PETzZdW7/V6XKIso0BIEfU/7ahRI+pq0ThhnzpyT8ypGN+lRdzRngws9KLaeUGvDr/pChlV6+J1S0JrG5J4M29cbzdksiP2wciJqAeNjXrR9uuHPua0+UQZQuP1g6b8vMd5XFP8gsCdb1SKHS6niPRFDCx1MDxVV7Mr/ZhfpUXNSFe2tPAxUzBmpYEVu6N443dCfyrOY6eeI6PRBB5UUG+teXqsc87XQqR3RgAHDLpjp0VCSS/CMh1CirkdD39GVus46SRPpxU68OJNV6U8L492cgSYG1rAq/siuGVXXGs3BtHNJmjLQQiywF8a+vVY551uhQiuzAADLH63zaUaHHty0rkeihV4HQ9ByrxaTil1ovFo/04eaQP1QU84dPQiZuCt5rjeHlnHC/siGF9awK5FgcE+KeI+mrj1XUvOV0LUaYYAIbIhJ9u9CX93hs04KuAKnW6HiD1nz+1woPTRvmwZJQPs6u84C18yhXNYRMv7ojhhe0xvLwrjt5cul0g+Lsm8l+brxmzzulSiNLFw322iaixd2y7TEHdAoV6p8vRNeDEah/OGuvHmfV+VAV5lU+5L2kJVuyJ48mGKJ7eFkNzLowwSHUW/G3CwDebLq/f5XQ5RIPFAJBF45c1zhXgV1DqBCfr8OoKi0d5cc6YAN5X5+MYfMprAmBVcxxPNcbwRGMETd3OhgGB9CrBt0tV60/evGp+wtFiiAaBASAL6n/bUKLHtVsAuQZQjpxtdQWcNNKHpRMCOKveh0IvT/o0PK1qTuDRLRE83hB1tGVAgHWaZV235ZqxLzhWBNEgMADYbOydjZdB1G0KGOHE/mdUenDhxAA+MNaP8oDuRAlEjrAEWLEnhr9tiuKxhgjCCWe6EIrgj7rH8/nNnx3Z4kgBRAPEAGCTffP13wGopUO971K/hgsmBHDJpCAml+XljMFEtgonBU80RPGXDWG8sSc+5PsXkVbR1HWNV9bfP+Q7JxogBgAbjF3W+DGl8LOh7N2vACwc6cNl04I4o84Hg2vgEvVrW7eJP78bxl82htERHfKRBH8xYFy78ara1qHeMdGx8KyRgbpfbSvVNdytFD40VPss8mq4cGIAl00NYlwJr/aJBipuCh7bGsXv1/dhVfPQ9dUTkRYl8qmt14x9fMh2SjQADABpqr+z4UTd0v48VEP7xhbr+MxxIXxoYgABg/9tRJl4pzWBu9/uw2MNEZhD0SggIgL1w7rddV978VsqOQR7JDomnkkGS0SNuXPbF5So7ykFT7Z3N6/aiytmhHB6nQ9s5Sey165eE799pw/3bYigL5H9JCCCVzRTv3TLdaOasr4zomPgKWUQau7YGQxI8l4oXJTtfS2u9eGGuSHMrfJme1dErtcTt3Dv2j785p0wOmPZDQIi0irQLuJ0wuQ0BoABmnj79tqkkr8phXnZ3M+SUX7cODeE2SOy3rhARIfoS1j43dow7n6nD51Z7DAogrjScNXWK+vvydpOiI6BAWAAxt+1bZ6Y8giUGpmtfZxQ48N/Hl/IEz9RDggnBHe/04s71/RldT4BAX7YsKvuy/iWyqGFDsgtGACOYfyyhtMspR7J1pK9E0sN/NeCQpw22p+NzRNRBtoiJn72r178aUM4e50FBX8YvbvuU+wcSEONAeAoxi5r/ICC+isUbD87l/o1fPH4QlwyKcgV+IhyXGOXiVte68bzTdGsbF9EHtZj8Us3f25SLCs7IOoHTz1HMPb2xouh1B/t7umvKeCjU4K4eX4hF+UhyjPPbo/hO692oaknG2sOyNMReC7YfVVtOAsbJzoMA0A/xt7ZeB4EDykoW2famVHpwfdOLsa0Ct7nJ8pXMVNw+6o+3L66F0nL5v4BIk+WqtalXFWQhgIDwCHG3rltkRJ5ElABu7bp1RU+NzeEK2aG2NxPNEy8257El17qxLpWe8/VAvlTw5X1l0EpZ1YzItfg6egAY+9qmqks6yUAxXZtc2alBz9cUoIJnLaXaNgxLWDZ6h787K0+e1sDBL/YenX9DfZtkOhwDAD7TLh7V6WZjL+poEbbsT0F4PIZIXzx+BAX6iEa5lY1J/C55zuww8a+ASJyfcPVY35p2waJDsEzEwDcL/rY9u1PK4XT7NhcmV/Dj04txpJRHNpH5BY9cQtfWd6FJxrsGSkggoQSOW3rNWP+acsGiQ7BbugAxrVvv9Wuk/+0cg/+dkEFT/5ELlPo1fCL00vxn8cX2rJuh1LwQKm/1C1rrMl8a0SHc30AGLNs21lQ+IId2zp7jB/3LS3HyJBux+aIKA9dNSuEO84qRYHHhsOrQo0B3JP5hogO5+pbAJN/vb4wbgbW2nHf/zPHFeCrJxa5+xdKRO/Z0J7EJ//RjpZw5v0CxJLLG64Zc7cNZRG9x9UtAHEz8CM7Tv43zwvhazz5E9EBJpcZuP+8cowqzLxFUGnqxxNv315rQ1lE73FtAKi/s+FEBXVlptv5+sIiXDen0I6SiGiYqSvScf95FagvyjgEFJua/MSOmoj2c20A0EXdmuk2bpoXwqemF9hRDhENU1UFGu59fzmqCjI+3F489vbtC+yoiQhwaQAYd3vDuYBanMk2Pjm9ANfzyp+IBmBUoY7fnVOe+fofmmR84UK0nysDgCjtO5m8/pRaH/77xCK7yiEiF5hYauAn7yvJaIigAk4dt6zxdPuqIjdzXQAYd3vjyUphbrqvrw3p+Olpmb2JicidFtf68Pl5mbUcigKnCCZbuC4AiIbr0n2tpoCfnFaCEr/rfm1EZJNrZ4dwYo0v7dcrwXnj7thSZ2NJ5FKuOpNNuHtXJURdlO7rPzatAHOrvHaWREQuowB8f1Ex/EaazYhK6RA94xFMRK4KAGYytlQppHUGrwpq+NJ8dvojoszVFem4YU4ogy2kfyFDtJ+rAgBEOy/dl149O4Sghzf+icgen5xegIpAmvMDKEyZ+Ktt4+ytiNzGNQFg2v3veKHkzHReW12g4dLJQbtLIiIXCxgKV81Kfx4RU5O0L2iIABcFgEhb0WwFlVab2yWTCuDVefVPRPa6eFIAvnSPLUotsrcachvXBADAmpHuKy+cGLCzECIiAECRV8PpdWmOCBCZaW815DbuCQAKaQWAyWUG6jKfx5uIqF9nj03zAkNhwqgfb+fVCaXNNQFAAVPSed3cERz2R0TZM2eEJ81XKs1TpCbaWgy5imsCABRK03nZjMp035xERMdWG9JRlubkYloyWWZzOeQi7gkAUMXpvKoy6KJfERE5oiLt44yW1nGNCHBVAEBab5QSr5t+RUTkhFJf2v2MGAAoba45uxlKWem8LmGJ3aUQER0kZqZ1eIJAJWwuhVzENQGgIqi1pvO6jR1Ju0shIjpIWyS9AACYXbYWQq7imgAwrkRPKymvambAJqLsSVqC5nB6AcDv1bptLodcxDUBYFq5kdZsGy/tiIE3AYgoW9a2JhEz0zvKfHp6kOOUKW2uCQCTSzxGOq9rj1pYw1YAIsqSN/bG0npd0FD43AnFcZvLIRdxTQCYUm6kFQAA4MUdUTtLISJ6zyNb0ju+TCwzYCRVkc3lkIu4JgBMLvX6y9NcevOZ7ekldCKio9nYnsTa1vRaGKeWeQBlcRggpc01AUBTYpxYnd6sfmtbEwwBRGS7u97uTfu1p9T60Bu1uE45pc01AQBAw8LaNFfdAnDr691Ic6guEdFhtnYm8bfNkbRea2gKi0d5saPP5DhlSptrAkBzxGo9q94HPc1/8dbOJP6wvs/eoojItW59oxtpdv7HgmovCjwatvXxsoTS55oAsHJPoqA8oGNJrT/tbfz0rV50x/l+I6LMPNYQxTPb0r+teMHE1CrA61s5CIDS55oA8HZL3AsAF01Of/nszqiFb7/CeTeIKH1tERPfyuA4UuLXcN44P0TE/NO6SPr3Ncn1XBMA1rQmigHgjDofakNpL7yBhzZHcNea9DvuEJF7mRZww3OdaIuYaW/jkolB+HSFhIVtbVFJe3gzkWsCwFt7YuNEJGpoClfNCmW0rf95owfPNXFuACIanO+t6MaK3ek323t1hY9PT3X839mb3GtXXeROrgkAcQv+9pi1HgAumRRAVUH6/3RLgM8/14WN7eyAS0QDc8/aPtyzNrOOxJdNDb7Xgvn89jinKKWMuCYAAMDLO+JdQCpF3zi3MKNt9SUsXPl0O1ozaMojInd4cFMEt7yaWf+hkFfD9bP/3Xp577q+8ZnWRe7mqgBwz9pwzf7HH5kcxOwR6U0MtF9Tj4lLHm3D9m6GACLq36NbovjyS50ZLyp27awClPhTh+xIQjY39Zi1mVdHbuaqALCmJT45HJcNAKAAfOekYugqs21u706FgHVpTudJRMPXH9aHcfMLHWmP999veoUHl8/499X/89ujOzIsjchdAQAAHtwc2bP/8bQKDz4zI7MOgQDQGjFx6WPteHU3pwsmopRfrurFN/7ZBSvDk7+hKfzP4pL3JjETkeT3XuuamnmF5HauCwA/ebNrhoiE93/9xfkhzKjM7FYAkOoT8Jl/dODxBo4OIHKzmCm46flO3Layx5bt3TCnAFPK/j3ab3u3uXJ3RKps2Ti5musCQEcMZa/ujr+x/2tDU/jZaaUo8GT+q4ibgs8914Hb3uzlugFELrS3z8JH/t6GR7akN8f/oRaP8uHa2Qd3WP7ua93pT2dKdADXBQAA+NLzHVNE5L1L9boiHT9YXIwMuwMASA0R/OVbPfjIY23Y0cPOgURu8XxTFB94qAVvt9jTH2h0kY6fnFYC7YADU3PUfPPZpthsW3ZArufKALAnIlWv74mvOPC5c8f6cdP8zIYGHuitvXGc91Ar/r6VtwSIhrOEJbjltW5c/mQHOqL2NP0FDIXbTy9Fse/fh2gRkWuf7iywZQdEcGkAAICrnuqcbVrScuBz180O4eJJ6a8VcKieuIXPPdeBL73YiXAi00FARJRr1rYmcMHDrfjtO/atFGpoCr86oxRTyw/um7S5M/nKW3vjU2zbEbmeawNAT8Iq/vGbPRsPff67pxRj8Sh719d4cFMESx9uwQqOEiAaFuKm4Mcre/ChR1rxro0zgioAP1xy+DHIEmn/+OMdk2zbERFcHAAA4I7VfSe3xcx/HficoSksO7MUi2rtDQGNXSY++lg7bny2A3v62EOQKF+9ujuGpQ+14ler7O/s+42FRTh//OGtkD98o2d9S8SstHdv5HauDgAAcP6DLTWWSPuBz/n0VAg4aaT9K20+1hDFmX9pxu2re5HIdIAwEQ2ZvX0Wbny2Ax97rB2bO+1dB0QB+NbJxfjE9MNv8e/sNV+/c03fybbukAgMANjTJzVfW965+dDn/YbCXWeVYsko+0fchJOCH73Rg3MeaMELXFWQKKdFkoJfrurFGX9txmNZmOdDV8APl5TgY1ODh30vYcquDz7UPMH2nRKBAQAAcP/G6IIVu2MvHvr8/hBgZ8fAAzV2mfjskx244skObOrgyoJEucQU4M8bwjj9/mbctrInKx15vbrCz04vxYcmHn6MEZHox/7R2tkRQ5ntOyYCA8B7Lnu89eTmsLny0Od1Dbh1cQmun2PfEMFDPdcUxfsfaMENz3ZgA5cYJnKUAHiiIYpzH2jB15Z3YW84O312KgI6/viBMpwzpv9Wxp/9q/eNlbuT07KycyIwALxHRDNO/2vL5EhSDhsZAAA3zQvhh0tK4Mt09aAj7R/A4w1RfODBFlz7TAfWt3FxIaKhZAnw2NZUGL/+2Q7b7/MfaEqZgYc+WI45I7z9fv/5pugLP3urd1HWCiACA8BBwnEpPPvB5lDSkj39ff/CiQHcv7QcI0N61moQAE82RrH0oVZc9XQ71nKVQaKsSlqChzZH8P4HW3Djc9m/HXdmvQ9/WVpxxOPIO63x5Zc/2XFqVosgAgPAYXZ2WyOXPtwaMS3Z29/3j6vw4JELKrIyQuBAAuCZbTGc/3ArrnyqnXMIENmsN27hrjW9WHJfM774Qic2Z/nE79EU/vvEIiw7swxBT/8tiU095ooLH2o5KauFEO2TnfbsHDRuWWMSSg340n1yqbH10Q9VhHRNjejv+5YAt6/uxU//1TNkC/9MLDVw2dQgLpwYsGXxIiI32t5t4vfr+3Dfhgh640Pz5h1dqOPn7ys96sqjO3vN10//S8ushCkDv7oQXLP16vpldtRI7sMAcBRTyowtj1xQEdI1dcSlN9e0JHDTCx1o7Bq6hX8KPBoumODHx6cVYGKpcewXELmcJcDzTTH8fm0flu+MYShn4Dh/fADfPrkIhd4jh/bNXeY/z3lg7wliqcG9oRkAKAMMAMdQX6Tv+MdFlQmvrsYe6WfCScF3X+vGn98NZ1ZkGhbUePGxaQU4u94HQ3PNfyfRgOzutfDgptTV/s7eoV2dsyKg45ZTinFm/dEv6Fe3xF+6+JGWUyzRBt+sxwBAGXDNGSPdAAAApX6t/blLKnYW+fQZR/u513bH8NXlXdjWPfTLAI8I6lg63o/zxwdwXMWRmxmJhruYKXiqMYa/bgzjlV0xODHh5nnj/PjWScUo8R/5nC4i8uiW6Is3vdB5ato7YgCgDDAADJDfkMjjF1atqi/SFx7t52Km4Kf/6sWv37Z/nvCBGlusY+n4IJaO82NcCW8R0PBnSSqAP7olin80RNE9RPf2DzW6UMfXFxbj9LqjX/WLSPhbr3Sv/r/14aMeT46JAYAywAAwSD9YVPzCxZMCi9QxtrW+LYFvv9aN13fHM91lRqZXeLB0vB9LxwVRXcCOgzR8CIBVe+N4ZGsUTzRE0RIe+pa3/by6wpUzQ7hmVgH8xtEPq0lL9n7s761tbzTbMMkPAwBlgAEgDe8f43/zZ6eXjNWUOuYUnY81RPGDFd3YNcT3Hw+lABxf48XScQGcXudHFcMA5SHTAl7fG8NTDTE8tS2SEytrnjbaj28sLEJd0bEPL83h5JvnPdhW1xa17FnZjwGAMsAAkKa6In3Hw+eXtxf79ZnH+tloUnDnml7ctaYP4WRurAA4tdyD00b7cOooH2ZXeZGlCQ6JMtaXsPDPXXE83RjFc9tj6Iw5f9IHUnOCfOWEQpxYc+xReyJiPrwl+tKXXmhfIkijs98RN8wAQOlzzWHf7gAAALpY5o9OK1u+dLz/FKWOPXynNWLil6v68Kf14ZxaCrjEp2HxKB9OrfNhSa3vqB2XiIbC5s4kXmiK4oXtcazcG8+p98voQh1fmF+E88b7B3QATVrYefXTba3PN8Vn2V4MAwBlgAHABifWeNbec055yKOr+oH8/M5eEz99swcPb47AzJ3jGgBAU8CsEV6cNtqHJaN8mFruYesAZV1bxMSruxN4dWcM/9wVQ1OPs7fM+lNdoOHqWSFcOiUIzwCH3L7dEl9+2RPts/vikp3VxBgAKAOuObRnMwAAQEBHeNmZZW+cXOs95VgdBPfb2pnE7at78bctEcdGDBxLgUfDvBEezK/xYkG1F7MqPfAyEVCGOmMWVu5NnfBf3R3DxvbkkE7OMxgjQzqumRXCJZMDAz7xJy3s/uILnTsf3RqZn9XiGAAoA645kmc7AOw3v8ZY99szK/SgV00e6Gt29pq4c3Uv/rIxgliuNQkcwqsrzKr04PhqL46v8WLeCA+nJaZj2tFjYuXeON7Yk2rS39KRuyf8/eqKdFw1M4SLJg38xC8i1urWxMuferxjVk/CKs5yiQwAlBEGgCxQmiS/f3LJyxdN9B+vaVrBQF/XEjbx27Vh/PndMLpypKPTsegq1aHw+GovjqvwYHq5B+NKDN42cLHeuIW32xJY3bzvozWOvTnQW3+g5lR5ccWMApxZ78dgJtfsi8u6K55pkxW7EtOzV90hGAAoA645TA9lANivJqD2/vr95ZsnlxonKaUG/LuOJAUPbYrgnrV92JLFNcmzxW8oTCkzMK3cg+kVHkwv82BymcFbB8NQd9zC+rYE1rUlsbYtgbdbEtjSmftX94fSFHBmvR+XzyjA3CrvoF5riXTcuab37R+v7E5vOt9MMABQBlxzRHYiAOx3cq3vnV+eXqIKvdqgrgwEwPKdMfzunTBe2hF1ZEpTu+gaMLEkFQqOq/BgWrkH40sMlHHEQV5IWoKGLhObO5PY1JHA2rYE1rclh3x+fbtVBnV8eFIAl04JYmRocIcHEYm9sivx6o3Pts/qjEtplko8RhEMAJQ+BoAhoixLPjkz9Np/zS+q8RpqzGBfv7PXxP0bIvjLxr68ak49liKvhjHFOsYWGRhbomNMkQdji3WMLdbZt8ABHVELjd1JbOs2sbUziU0dSWzuSmJbdzJnO6oOlgJwYo0PH50WxFlpLKIlIrK5M/nKlU+2123vtUZnp8qBFsMAQOljABhiSpPkTbMLX71qduEEQ0PNYF9vCvBCUwz3vduHF3bEhs1BuT+VQR1jinSMLTYwtlhHfZGB6qCO6gIdFUGN/QzSEE0KdvWa2NVnYmeviZ29Fhq7EtjWbWJ7t+nYHPpDYWRIx4cmBHDhxCDGFKd3KGgOm29c+2x76K29yak2l5ceBgDKgGsOobkSAPbzKhX92sKiFZdOCUwxNFWVzjbaIib+vjWKhzZH8HZLwu4Sc5qmUsutVhVoqApoqCrQUVWQCgcjghqqg6nvFR1lDfbhxJLU30NL2EJzxERz2EKTbT4AAAAgAElEQVRLOPW5OWxhZ5+JXb0mOqLD9wTfn6ChcPYYPy6aHMCJNb60D3i7+5Kvf+H5zuCKPYnjbC0wUwwAlAEGAId5dBX7/JyC1y+fWVhvaKhLdztbO5N4eEsUj2wO5+QkKk4JGAolfoUir7bvI/W40HfA17593/cpFHm0fd9X8OsKHk1BH4IMkbQEMVMQSQp64qnpb3sTFnrjSH1OCHrjFjqigo6oic6YhY6YpD5HLXTHrJybVMopHk1hUa0P54734+x6P4Ke9A5zIiK7w9brNz/bXmjLwj3ZwABAGWAAyBG6WOblswtf+9ycwiqfoSZksq13WhN4oiGKJxoi2NbNMJApBcDQFDzavs+6gqEJPAc+pyl49NRjXaVu1VgCWCIwrdRjUwSWpJaMTn0AsaQgbgpP3hkyNIWTR/pw3ng/zqz3oTCDlh8Ria1rS77+5Zc6qte1mxNtLNN+DACUAQaAHHTuGP+/vraw0KwK6vMHM3ywP+vbEniiMYanGiPY1JF/QwqJjiToUVhc68MZ9X6cVudDiS+zphpLpOO57bFV33i5e9reiJnWbbkhxwBAGWAAyGGTSvTGb59SvH3eCO88TVMDnlDoSJp6TDy/PbWi2mu7c2uBFaKBqApqOL3ejzPqfVhY47NlbolwXDbcuy685xf/6p4fsZDx+2xIMQBQBhgA8kCBV/VcN6tg1cenhyqDhppixzbDCcHynTG82BTDyztjeT+em4Ynr64wb4QXi0d7cUptanEqOw5aIhLZ0JF885bXuotf3RWfYcMmncEAQBlgAMgz86q96792QmHrjHLPHE1TIbu2u63bxMs7Y3h5R6p1YDgPB6PcpQBMKDVw8kgfFo/2YkG1DwHDvsNUOC4bHtgU2f2TN7udm7zHTgwAlAEGgDwV1CX8qeNCb318ekGgMqDNVkrZ1lfdFGBtawIr9sSwcnccK/cm0JknaxNQflEAJpcZWFDjwwn7Vpy0e3ZI05KWFbtja3/0Rm/N6tbEgBfpygsMAJQBBoBhoCaomq+bW7T+g+MCNUGvmmT39gXAxvYkXt8Twxt74nirOYFdvGVAafAbCsdVeDCn0ot51V4cX+VBSRamgxaRvsZua/Wyt3r0B7ZE54qIx/ad5AIGAMoAA8Awc0K1p/v6OYX+edVery+LU+W1hE2sbkliVXMcq5oTeLstgV7eNqBD1BXpmF3pxZyq1El/arkx6Kl3B2NXb1Ie3hTpXbamz9uXEF/WdpQrGAAoA4bTBZC9VuxJFK14oh0AsGS0D585LoT5VR74bbyPCqSm6T2jXscZ9aljrCXA1q4k1rUlsK41tTLcuvYEOl0285xbaQoYV2xg+v4VICtSCz9leyZGAbCnz8KTDRH8alUv2qKWAlCY1Z0SDRMMAMPYi02pXv4AML/ag09OC2FhrRelGY6X7o+mgAklBiaUGDh//L+f391rYW17Ahva4ti0b3GZrV0m4pz5Jm9VBTVMLPVgYqmBiaUGJpUamFzmQdDmkHkkpgVs7krg0c1R/G5tGOEkQyZROhgAXGLlngRW7ukAAFQENXx6ehBnjwmgvkiHltlcQ0dVE9JQE/LhjLp/t8aaAjR1p5aW3diRwNau1OpzjV1JtLPFICd4dYW6on2LMRV5MKZYx8QSAxPLDEfWV+iJW1jTmsT9G8P4++bIkO+faDhiHwDCmWN8uHBCEPOqPSj3O/sr6o1bqTDQbaKxO4mm7tQiNjv7ktjdayHGlgPbVAR01BZqGFWgY2ShgVGFqRP+mCIDI0M6snir/piSFrClK4lnGyP4v/URNIfZ6bRf7ANAGWALAOHpxhiebkzdKvAbGj48OYD3j/VhSqkHRVm4XXA0Ia+G6RUaplcc3mlbkFrxblevhZ29Jnb3pVa7a92/6t2+1fDcPmTRoylUBjWMCGoYEUitjjgiqGHEvtUSR4UMjAxpyGYn0cFKWsCOXhMrdsXwwOYw3tzjrtUtiZzAAEAHiSYt3Lu2D/eu7QMABA0NF0wM4Kx6P6ZX6ij16Y41GymkrlorAjpmVh55VFfcFLREUqvkdcQsdEYFHTETndF9K+hFUyGhNyGpVffiklptL2HBzKHsEDAUQl4NIU8qGIUMDYVehWKfhlK/hlK/Sn326Sj1KZT4NZT5NZT4tZxv2oubwI7eJFbsiuOvm8JY1cwTPtFQYwCgowonLfxxfR/+uD4VCAwNeF+9H2fW+TFrhAejCnT4hqjz10B5dYXakI7a0OBvZ0SSqVAQSaZW7YsnUyv3RS1BLJlawS9u/ntlP1NSK/mJ7FsB0BIIUp0iNZVaGVBTgK6p1Od9j326gl/Hvs+pr31G6rHfSJ3wc+gCPSMiQEfcwsb2JP65I4a/bY1iZw8XpiJyGgMADUrSAp5qiOKphuh7z1UENJw3PoBTan2YVGqgMqDDm6e9LQKGQsDI0+JzgAjQk7CwrTuJVc0JPN8Uw/KmGHKoYYWI9mEAoIy1Rizc804f7nmn773nSv0azhrjx8IaL6aVe1BToCPgUTnfNE0Dl7SA9piF7d1JvLU3jueaonh9N5vyifIFAwBlRUfUwn3vhnHfu+GDnp9ZaeCUkX7MHOHBuBID1QEdQY9CFkciUobiJtAdt9DUk5ro6fU9CSzfEUOXyztbEuU7BgAaUmtakljT0nvY86MLDSyo8WBGhQcTSjwYVaijzK8hYCCr8xRQStwEehMm9vZZaOgysa4tgZV7Y1jVnECC53miYYkBgHJCU08STT1JPLDx8EleirwaZo4wMK3UiwmlBkYXaagKGijxKwR0DR4NbEE4CtMComZqpEN71MTOHhMNXUm825HE6uYEGrrYIY/IjRgAKOd1xy28vCOOl3fEj/gzRV4Nk8p0jC/1YExhaqx7WUBDiS81lK7Ao+DXFDy6gq7l9wxYlgiSlkIsaSFipWbJ645Z6IgKWsImmnpMbOlKYEOHie1dSXDqJCLqDwMADQvdcQsr91hYOcAJZLwaMCJooLJAoSKgoTygo9ybGltf5Ev1S/DvG5rn2zdcz6sreHXA0BQ0paAB0PaFCaUEGgClUh0dLQAiAhG173FqwSRr37DBhCmIvze0MDW8MJoURJKCcELQETXRHgPaoyZaIyaaw4K9fSa6ueIiEdmEAYBcKW6lJqLZcXh3BCIiVxj6VT2IiIjIcQwARERELsQAQERE5EIMAERERC7EAEBERORCDABEREQuxABARETkQgwARERELsQAQERE5EIMAERERC7EAEBERORCDABEREQuxABARETkQgwARERELsQAQERE5EIMAERERC7EAEBERORCDABEREQuxABARETkQgwARERELsQAQERE5EIMAERERC7kogCgNjldARGRnQRQTtdA+cs1AUAU2pyugYjIXlaX0xVQ/nJNAADANwoRDTOKxzVKm2sCgALana6BiMhOGoTHNUqbawKAAO86XQMRkZ0SlsbjGqXNNQEAgjVOl0BEZBcR2bH92voOp+ug/OWaAGCJ9bbTNRAR2aUmpDc7XQPlN9cEgIar6vtqQq755xLRMHfuWH/I6Roov7nojJi8+LTRfqeLICKyxYcmBsucroHym3sCgGDR++p8TldBRJSxUYU6ppYaJU7XQfnNNQFAxJp50kgfin2u+ScT0TB1zpgAlKYMy7JGOl0L5S/XnA2VUjU+XeGiiQGnSyEiSpsC8NGpwX1fWUucrIXym2sCACz4AeBj0wo4eTYR5a1FtT7UF+mpL5JWjbPVUD5zTwAAPABQX6RjCTsDElGe+sRxwfceK11GOFgK5Tn3BAAl+v6HN88LsRWAiPLO3CovDhzN1BG16h0sh/KcewIANGv/o+kVHpw7jq0ARJRf/uv4woO+3tyRqHKoFBoGXBQAJHngV1+cXwSPxnYAIsoPZ9T5ML/ae9Bz3TGtx6FyaBhwTQDojVsHTQJQV6TjujkFTpVDRDRgBR4N3zyp+LDnOxMmAwClzTUBoCdx+G3/a2cVYlq5x4lyiIgG7MsLCjEypB/2/Orm2C4HyqFhwjUBoKEzKYc+p2vArYuLYfBWABHlqBNrfPiPqcHDnhcAf1oXaRj6imi4MJwuYKisao7i5FGHTwU8rdyDLy8oxC2vdTtQFRENNV0DSn06Sv0aSv0aSnw6CrwKXk3Bqyt4NOz7rODRFRSAhCVImIK4JUiYQHzf40hS0Bm10BE10RGz0BG1EDcPu9ZIW0VAx22nlvQ7aqkvbsFK5QCitLgmADzbFLOum4vD29AAfPq4AqxpSeCRLZGhLouIbGRoCiNDOkYVGgd86BgVMjAimDrph7zZbfgMJwWdUROtEQs7epLY2ZNEU08SO3pM7OhJYkdPErEBhARdA37+vhJUFfRf785e0+7SyWVcEwBWNycRNwFvvxEA+N6iYmzsSODd9mT/P0BEOUNTQF2RgSllXkwu82BKuQeTy7wYVWhAd/iOXtBQCIYMjAwBMyu9h31fAOztM7GhPY532xLY0J7Au+1xbOlMImn9Oxh8ZUERFtQc/vr9nmyIZaN8chHXBAAAeLcjjpkV/b+hAobCXWeV4eJHW7G3z+r3Z4jIGTUhHfOqfJhX7cPMSh8mlXkQNPKz744CUF2go7oggCWj/702ScISbO1M4u2WOAxNcMF4P47Wwn/Pur7sF0vDmqsCwMObo0cMAAAwMqTj3nPK8ZG/t6EzxhBA5AQFYGq5F/OrUyf8eVU+1PTTA3648WgKk8s8mFx2yMgksQAIIIL9gaAtaqKLxyjKkKsCwB/X9eGrC4pgHOUW4IRSA3efXYaPP96G8OEDB4goC0r8GhaPCmDxaD8Wj/KjPDD8T/gDpvYdsPY3eIiFd9sTqAnp2N3DfgCUvvxsQ0vDuGWNSSil//qsMpxWd/hogEOt2B3HFU91oC/BlE2UDdMrvDijPoDFowOYWekFR+MOXkfU3F3i0/4E4O9KqZeUUkwENGCuecvtDwD1xQaeu6RyQK9Z3ZzAp59sZ1MbkU2mlXtx7vggPjAuiLoiVzVAZp2I7AXwAID7lVLLlVI8cNFRuS4AAMDjF1VicunADj7vtifxiSfa0RZhsCZKx8RSD84bH8S544IYV8KZN4eCiOxCKgzcp2naP52uh3KTKwPApDIPnriwYsCvbeo2cflT7djcySGCRAMR9CgsHV+AS6eG+h0KR0NHRDYB+DWAezRNa3a6HsodrgwAAPDn88pwfPWx+wLs1xO3cOOznXhpJ8feEh3JzEovPjI1hPPHFyDocc3hJS+ISALAIwDuUko9zVsE5Jp36KEBoKpAx/JLRwxq0hBTgFte68a9azn+lmg/r65wwcQCfHx6CNPKebWfD0Rkm1JqGYBlSqlOp+shZ7g2AADAjXMK8bl5oUFv69EtUXzt5S6OECBXK/FruGxaIT4xPYQKDtvLSyLSC+A3Sqn/VUo1Ol0PDS1XBwAAeP4jI1BXOPiDV2OXiRue68C6toQt9RHli/oiA5+ZWYSLJhUgkKez8dHBRMRUSj0oIj/UNO0Np+uhoeGad++RAsDoQgPPXlIJPY31QWKm4HuvdeP368N2lEiU0yaUeHDjvGK8f1yQY/aHMRF5Xin1DaXUy07XQtnlmrfxkQIAAFw4KYAfLi5Je9sv74zhK8u7sIurc9EwVF9k4MZ5xTh/QgFP/C4iIk8B+Lqmaa87XQtlh2vezkcLAADwP4tLcNGkwJG+fUy9cQvfW9GD+zawNYCGh9qQgRvmFeHCiaG0WshoeBCRvwP4hqZpbzldC9mLAeAA/7i4EhNLMpudbPnOGL75zy5s62ZrAOWnYp+GG+cV47JpIXh4yU8AREQA/AXAf2qats3pesgernl3DyQAeHXgxUurMCKQ2eVO3BTcsaYXt6/qQ8zkgkKUH3QFfHRaIT4/rxglfl7y0+FEJArgxwC+r2kax0PnOQaAQxR6Nbx0aSWKvJkfAJt6THz7lW481xTNeFtE2XRyrR//vbAUkw5dipaoH/umGv6yUur3Sile5eQpBoB+VBfoeObiSgRsmsls+c4Ybn29B+s5ZJByzKhCA19fWIozxqTf/4XcS0RWKKWuU0q96XQtNHgMAEdQU2DgHxeVI2RDSwAAWAL8bXMEt73Zw9EC5DhNAZ86rhA3HV+CIMfyUwZExATwU6XU15VS7AWdR1zzzh9sAACAsoCGpy+uRInPvvuhMVNw79o+3LGmDx1RziRIQ29ymQffX1yOWSM4bS/ZR0QaAFyladrTTtdCA8MAcAyFXg1PXVyJEUF7O0WFk4I/rOvDXW+HudQwDQmvrnD93GJcNasQBnv3U/b8TkRu1jSt3elC6OhccxRINwAAgKGA+5aWY3YWrpgiScEf1vfhrjVhtDIIUJZMq/Dif99Xjgkl7ORH2ScizQA+q2na352uhY6MAWAQvr+oGB+eHLSrpIPETMFDmyP4zdt92NKZzMo+yH0UgCtmFeHm44s5pp+GnIjcDuALmqZFnK6FDueaI4IdAQAALpsWxP9bWJy1KVEFwAtNUdy1JowVu2PZ2Qm5QnWBjh+dVo6FI/1Ol0IuJiLrlVIfVUqtcroWOhgDQBomlHrw5/PKUGpj58D+rGtN4Pfrw3hkSwSRJIfa0sC9f1wQtywqs7UDK1G6RCQO4GtKqR9z3oDcwQCQJl0Bd59dhkWjfHZt8oh64hYe2hTBH94NY3MHbw/QkRmawtdPKsXHpoWcLoXoMCLyhFLqMqVUh9O1EANAxi6dmrol4BmiC63Xd8dx/8YwnmyIIsxWATpAVVDHL8+swJyq7IdSonSJyFYAF2qattrpWtyOAcAGJT4N955bhunlQ9fDOpwQPNEYxQMbI3h9dwyMAu62oMaHn59RgYpAVv7EiWwlIhEAV2qa9nuna3EzBgAbfXx6Af77hCIYQ3zbdUePiYc3h/Ho1ihvEbjQp2cU4isnlHLJXso7IvILpdTNSinOk+4ABgCblfg0LDuzBMdXO9MMu7E9iccaoni8IYKtHE44rHk0he8vLsOHJhU4XQpR2kTkJQAf4sRBQ48BIEtOqvXip+8rRZmDvbDXtyXwREMUT2+PYmM7w8BwUuTVsOysCpzAIX40DIjIRgDnapq2xela3IQBIIsUgP88vhCfmREa8tsCh2rqMfHs9iiebozhjb0xmFyGIG+NKjRw9/srOasfDSsi0gLgfE3TXnO6FrdgABgCQY+GHy0pxln1Pijl/K+8O27hxaY4XtwRxT93xtEc5hTE+WLWCC/uPLuSnf1oWBKRKICPa5r2V6drcQPnz0ZDxMkAsF9NgYGfn16MOTm2CtuG9iRe2hnFyzvieGNPHDGTYwpy0Rn1Afz09Ar4uXwvDWMiIgC+qGnabU7XMty55kiSCwFgv+MqDPxgcQmmluVeE240KXirJY7XdiXw+p4YVjUnEGcgcNzSCUH8+NQK9vQn1xCR72ia9g2n6xjOGAAcNK3Cg1sXFWPaEM4fMFgxU7CqOYEVu2N4Y08Cq1sS6EuwA8FQ+vCUEL67qCxr608Q5SoRuU3TtC84Xcdw5ZpDSi4GgP2mlHnwg0XFOK7Sk/P/IZYAGzuSWNUcx1vNcbzVnMDWziQnIsqSTx5XiK+fVJrzfxdE2SIidyilrlVK8crDZq45ruRyANivukDHd04qxpLRvrxq6u2OW3i7NYG1rQm805rAurYEGrtMhoIMXTO7CF9cUOJ0GUSOE5HfK6U+pZRij2UbMQDkIJ+h8JXjC3HxpCACnvz8L+pLWFjXlsS6tgTebU9iU0cSGzuSvH0wQNfNLcbN84udLoMoZ4jIffuWFeZBxCb5eXZJQz4FgP0UgIsmB3DNrEKMKcqr0o9oV6+JTZ0JbOxIYlN7Elu7TDR0J9EZ5Xt6v8/MKMTXFpY6XQZRzhGR3yqlPsslhe3BAJAnRhca+OoJhThttB+evP1XHFlXzEJDl4nG7iQau0w0diewvcfEjh4LbRH3tPr9x9QQbllU5nQZRDlLRH6hadoNTtcxHDAA5BkF4D+mBfHp6QUYW2y44j8wmhTs6jWxs8/Ezl4TO3tM7Oo1sbfPQnPERHPYQk88/1sQLphYgB+eWs7e/kTHdqtS6stOF5HvXHOoGS4B4EAlPg2fmxvC0gkBlDq45kAuiCQFLWELe8MmmiMW2sImOmKCjqiF9qiJzqigI7bvcUwQTeZWC+LZY4P4+RkV0F3zjiTKjIh8XdO0W5yuI5+55nAzHAPAgaZVeHDdrBBOqfUi5HV3GBiIpCXojQt64oKehIXeuKA3mfocTgiiZiokxEzs+7zvIymImwJTUkMiLRGYomCKwBLAtAABoClAV4CmVOqzJtD3PdY1wKcr+HQFv6EwvsSDi6cU8eRPNEgicqWmaXc5XUe+cs0hZ7gHgAPNGuHBtbNCWDjSh4I8HUXgHgrQDKeLIMpLIpIEcJ6maU86XUs+cs3ZwU0B4ECzR3jw2eNCWFjrdf1tgpykGXDR25DIdiLSA+AUTdPWOF1LvnHNkcetAeBA1QU6Lp8RxJljAqgt0JEDCxO6G0/+RLYQkR0ATtA0bZfTteQT1xx9GAAO5tWBD00M4vzxAcwoN1DAfgNDS+mA4u+cyC4iskoptUgp1et0LfmCAYAAALWFBj42JYD31ftRX2TAw3NT9vDkT5QVIvKwUupCThQ0MAwA1K9pFR5cMjGAk2p9qC80huXkQ45QWioAEFFWiMhXNU37vtN15AMGABqQSWUeXDzBjwUjfRhbpHOoYVrY458o20TEAnCOpmlPO11LrmMAoLQEDA3njvfhfaP8mFHpQVVQh8FMcHTs9Ec0JESkDcA8TdO2OV1LLnPN0YgBIPuqC3ScPdaPhdVeTC73oDqowcvZbVJ4359oqL0J4BSlVNTpQnKVa47ODADOKPFpWDLahwXVXkwtNzCqUEeJV4fupnMh7/sTOUJE7tQ07Sqn68hVDADkiMqgjlNHezGr0ouJJTpGFnpQ5lPwGWqY/VHyvj+Rwz6klHrY6SJy0fA61h4FA0B+UEh1OFxQ7cXUMgP1xQaqC3SU+hUKDC3/+hnwvj+Ro/b1B5ihadpup2vJNbw0oZwiADa0J7ChPdHv9z0aMKnMwIxKL8YU6hhVaKCqQEO5X0eRTyGoK3h1QOXCNIdKB0/+RM5SSpWLyO9E5GzOD3Aw1xyd2ALgLl4dqCvyoK5IQ23IQHVAQ1WBjvKAhlK/QtCjIWBo8OsCr6bg0RQMTUFTsGeKZKUAxXxNlCtE5Auapt3mdB25hAGAqB9eAyj26ijyKoS8QKFXQ6FHQ4FXIWho0KFgaKklfw1NwVCArgsMpRDwKFw0uQhBTqdIlDNEJAZgARcN+jdeohD1I54EWpImWsKDf+2PTyvnyZ8oxyilfAB+IyInKKVMp+vJBTxKEdlo8Sg/LphY4HQZRNS/eSJyk9NF5AoGACKbBA2FWxaXOV0GER3dt0RknNNF5AIGACKbfGFBCWpDvKtGlMuUUkERudPpOnIBAwCRDWaP8OIT0wudLoOIBkApdbplWZ92ug6nMQAQZUhXwHcXl0NzzZgaomHhR5ZllTtdhJMYAIgydOnUEKaUeZwug4gGQSlVBuDbTtfhJAYAogwU+zTcNL/E6TKIKD1XWZZ1nNNFOIUBgCgDN84rRqmfbyOifKRSk8P9xOk6nMIjF1Gaxpd48PFp7PhHlM/2dQj8oNN1OIEBgChNX1tYAp3vIKLh4Eci4nW6iKHGwxdRGk6u9WPJ6IDTZRCRDZRSE0TkOqfrGGoMAERpuOn4YqdLICJ7fdmyLFfN480AQDRIp9YFMGeEz+kyiMhGSqkRAK53uo6hxABANEg3zefVP9Ew9SXLslzTs5cBgGgQzhwTwHEVrusrROQKSqlyAJ93uo6hwgBANEAK4KQ/RMPfzSLiijc6AwDRAJ05JojJnPKXaFhTSpWIyOecrmMoMAAQDdAVs1xza5DI7a4TEb/TRWQbAwDRAMyp8mFuFXv+E7mBUqoSwCecriPbGACIBuCKmbz6J3ITEblZRIb1It8MAETHUFdk4MwxQafLIKIhpJSaLCJLna4jm1wTAESpPqdroPz0mRmF0Ib1dQARHcEXnS4gm1wTACDY5HQJlH8KvRoumhxyugwicoBSapFlWXOdriNb3BMAgC6nC6D888EJQQQNXv4TudiVTheQLS4KANLtdAWUfz4ylVf/RC73H8N1kSDXBACl1E6na6D8MqPSi2nlnPaXyM2UUkUAPux0HdngmgAAwTtOl0D55dIpvPonIgDAFU4XkA2uCQBKyRqna6D8EfQoLJ3AoX9EBCilFlqWNd3pOuzmmgBg6JG3dfblogE6b3wBCjyueXsQ0bFd7nQBdnPNEe7dz04pmFvF+7k0MOfz6p+IDvYRERlW58xh9Y85GpHEB08bzbnc6djKAzoW1Az7dUCIaBCUUjUissjpOuzkmgAAE4tPr+NBnY7t/WMD4O0iIurHR5wuwE6uCQCirBkTSg3MqOR67nR0544flkN+iShzF4mI7nQRdnFNAAC0CgD42FQe3OnIRgR1HF/NW0VEdDil1AgROdXpOuzimgCglPgB4LxxfpT4XPPPpkE6Z1yQC/8Q0dEMm0mB3HMmFPgAwG8ofGI6WwGof2ePCThdAhHltgtEZFhcJrgmAIjgvfs2l88Ioszvmn86DVCBR8N8Nv8T0VEopUYAGBYrBLrmLKgU4vsfF3g0XD+H07zSwU6q9cFg+z8RHYOIvN/pGuzgmgCQsEQO/PqjU4MYX2I4VQ7loCWj7Wv+f3DLH23bFhHlHAaAfNIasYoO/NqjKdy6qJgdvug9S0bbM09E1IzitlXfxku7nrFle0SUc04QkVKni8iUawLAzp7kYc/NqfLi08exQyABE0o9GBmyp0Xot+t/gY5YO/531XdgyuF/d0SU35RSuoic5XQdmXJNAHi7JS79PX/zvEJM4K0A11s8yp6r/zeaX8Htb98GANjYuR73rL/dlu0SUVir7dwAACAASURBVM45x+kCMuWaAPDK7rjV3/N+Q+H2M0oR8rrmV0H9OMGGuf9Xtb6B61/8+EFX/b9Ycyve7Xgn420TUc5Z7HQBmXLNWe/l7VGI9NsIgHElBn60pATsDuBeczMc/vdM02P47LMXoTfRc9DzcSuOzy//DLrjnRltn4hyi1JqnIhUO11HJlwTABLQsKOv30YAAMCZ9T5cO6dwCCuiXDG22MhoXoj/23AnPr/8M4ia0X6/39TbiM8v/yySViLtfRBR7hGRU5yuIROuCQAA8Fxj/wfo/W6eF8Ilk7gOvNvMy+Dq/461/4sfvPnfEPTfurTfir3L8Y0VN6W9HyLKSSc7XUAmXBUAfv1O+Jg/891FxTiznrPBucm8qvT+v/+y+V78bPX3B/zzf2u4H7et+k5a+yKinMQAkC929Saxrds86s/oCvjp+0qxsIYhwC3SaQF4p+0tfHflVwf9urvX/Ry/33DXoF9HRDlpjojkbbOxqwIAAPxydc8xf8anK/z67FIssWloGOWuYp+GcSWeQb0mkgzjS69cjYQVP/YP9+PWf30dzzQ9ltZriSh3KKUMEZnvdB3pcl0AeGBDBOHE0e/XAqnhgXecVYJzxjAEDGdTyjyDHv3xv6tuwfaehrT3aYmF/3rlGqxtX5X2NogoZ8xyuoB0uS4AAMAdq/sG9HMeTeFnp5fi4klcIna4mlzuHdTPv932L/xp028y3m/UjOKGlz6JtmhLxtsiIkfNdLqAdLkyAPxyVQ+6+58X6DC6Am5dXIIvHV/IeQKGoSllA2/+Fwi+u/KrsGRgfzvHsje8G1/nyACifDfD6QLS5coAIMD/b+++w6Oqtj4A//aemfTeAyENQgu9CIIgICCIgCKCCtdyP72CHS96r3ItKHZBURFQEBUFAZEmRQQEVHrvNZ303mcyc/b3R2iTTE0mc2Yy630eH83kzJmVYzJnzd5rr41395da9ZwpXX3w5bBAeCkpDWhO2gdZPgKwOXUNThYcsenr77qyFX9n/WHTcxJC7KqTEMIpbwwumQAAwKrzVUgqsW6jluExHlgxOhit/BRNFBWxJwYgwcIRAJ3Q4rPj7zdJHB8eeR06YXp1CiHEMTHGvIUQreWOoyFcNgEAgH9sKoLOfD2gno7BKmy4JwQj46g40NlF+yktHtFZn7wK6eUpTRLHpZLz2JC8qknOTQixC6ecBnDpBCC7QotPD5tfFliXrxvHF3cE4s1+fnBTOOXIDwGQEGjZp38BgUWnP2vSWOad/JBaBRPivDrKHUBDuHQCAABfHivH2YKGvfH+o6M3fhkTjPZBtJ2wM4rytez/264rW5FSdrlJY8msyMDapJ+a9DUIIU0mTu4AGsLlEwAAuG9DAcosXBVQV4dgFdbdE4Knu/tCQVfTqbTysywB+PH8oiaOpNaiM59TLQAhzokSAGel1gpM/LUQkpX1ANcoOcOLPX3wy5gQtKXRAKcR5WP+/1VGeRr2Zu+2QzS1uwbuyNhsl9cihNhUrNwBNAQlAFedL6zBf/9q3J7tnUJqCwRf7u1LywWdQJQFIwDrkleY3enPlmifAEKcUishhNMtD6ME4Carz1fhwwPWFwXeTMkZnuzqg63jw6iNsIOL8jH/97op5Rc7RHLDody9SC69aNfXJIQ0DmNMBaCl3HFYixKAOhaeKMeSk+WNPk+kD8e8oYH4dmQQ2gTStICjCXDn8HEz/et/vuh0kxf/GbKGigEJcTpCCKerA6AEwIBZ+8uw6nylTc41oKU7No0LxTsD/BHm5XQjRM1WhLf5/xc7rsgzH78pdY1dpx0IITYRJXcA1qIEwIj//lmCJacaPxIA1O4n8EA7L+yYEIoXe/rAW0WXXW6BHuYTgL8yd9ghkvqyKjJwquCoLK9NCGmwELkDsBbdiUyYta8Mnx+2TRIAAJ5Khqe7+2LXxFA82dUHXioqFJRLoIfpX/2KmnKcLJBvu96dV36X7bUJIQ1CCUBz8+nRMszcWwohbDckG+jB8XJvX/w5MQxTu9KIgBzMJQDHCw5DJ6zbK8KW9tAGQYQ4m2C5A7AW3Xks8P3pCkzaXAiNjXu0BHhwTO/ti90PhOKZ7r4IMHNTIrYTYGYKwNa7/lnrdOFxVGltU4dCCGl6jDGnGwGg8nQL7c/UYMiqPGy4NxiB7ra9UQe4c0zr6YMpXb2x+mIVvjlZjtRS6gjXlILMJFvnik7ZKRLDdEKHUwVH0Tu8v6xxENeQl5mMXxa82ahzMMagVLnB3cMbXr4B8AsKRVB4K4S3aoPw6AQoFA273aRdOI7fls1tVGy1AQIKhRJKNw94ePnAxy8Q/sERCGkRh1YJneHl49+o0wshnG4EwGUmoeMXpGjBWKPL8N0UwNKRQegV4W6LsAySBLAtrRqLT1bgULamyV7Hlc0eHIx7EryNfn/sxgG4VHLejhHV93KPmXik/VRZYyCuQZJ0UFdVQJJ0KMzJwJGd65B0+qDNzq9y80Bshx7o1GcoYtv3AJjltx5J0kFTVYnqyjLkXknGoR2rkZNu2+W5jHPEJ96C/iMfQnBkTIPOIYQ4wTnvatPAmhglAA30ZBcfTO/tA27FL3JDnCvUYtnZCqy9VI2KmobtV0Dq+3pEKIZEexr9fs8V0ajWVdsxovrGt56MmX3myBoDcV3rF7+Dy6cOmDxm9D9fQUR0W2g11aiqKEVpYS6y0y7i4om9KCvKM/ickMgYDBzzGGLad29QXNoaDZZ+9DyK8zKNHhMUFoWJz70PrVaDqopSlBTkICvlHM4d3oXykkKjz+MKBQaMfhQ9bh9jdVxCiDTOecOyB5m4zML0wLtfeB2M2Wzs/nCOBtvSNBjV2gMeTbglcIgnx+BoDzyS6I2WvgpkVUjIr6JEoLHGt/VBtJFWwEXqQnx1+lM7R1Sfj5sf7omfKHcYxEVJkg6XTu4zeUzXfiMR0iIGHt6+8A0IQUhkDGLb90C3AaPg5eOPjEsnIUn605mV5SU4e3gnSgqyEdOuOxRK66YGuEKBssJcZKUYH6Hz8g1Az8H3wM3DC96+gQgKj0JMu27odtsoCCFwJemMwecJIZB67ii4Qomo1olWxQWgeubMmR9b+yQ5UdVZI5wt0KD30hxsSW76T4peKoYH23vh13tDsO6eEDzc0ZuKBhvBzUTSVlht+JOLveVWZskdAnFhXj4BDX4u5wp0GzAK9z/9Dtw9vAwec/bQTvw092WTn8iN8fZv2HS7QqlC/1GTcdvdD5s8bs/mH5F+8YS1p2+6eeEmQneQRtIJ4OntRZi8qQDlDdxS2FqdQlR4o58f9j0UhvnDAjE0xh1K7jKzOTahMjH2VV5ju94PjVGgzpc7BOLClCq3Rp8jIqYtRj3ystE5//ysVKyaNwNV5SVWnVfl1rh9VnoPGYewlvHGDxACO9dYvQ144y+YnVECYCN7MzXo9UMOfkuutlsTVxVnGB7jgYXDgrDvoTDMus0ft0a6owlnJJoNNxMJk0ZS2zES4yodJBEhLspG9U0x7bujy613Gv1+cV4mNnz7AYRk+Qcozht562IMnW4dZvKQ/KxUo1MFRtAIgCurkYCnthdh7No8ZFbYd54+0IPjwfZe+GFUEPY+FIa3+vujT6QbaGDAMFNTAI5CJ3SQBNV7EOfXb+RDJj+1X7l8Ggd32HfnzYjodmaPSbtw3OLzMcYUQginuqc6VbDO4nS+FgOW5+C9/WU2bx5kiWBPBSZ18MKyUcHY+1AY3h3gjzui3eGhdPybnr2oTGRG7graxpkQW/L08UfH3oNNHrN/6wqUlxTYKSLA29d8jUNJQY5V5xRCONUoACUATWjRyXL0WJqD31KqbdpK2BohngpMbOeFr4YH4dDkcCwcFoT723oh2NNlFoAYpDDxm++r8rNfICYouQrcdgtX9Fgz3EqILXQwkwBoazQ4uN1+owDCgtE1Zv00iKpBwciEOgE2sSqthKe2FaGFjxKfDfFH9zD56kQ8lQxDY9wxNMYdAsCZ/Br8eUWN3RkaHMnRoEZynS1otSb+9kM9w+0XiAk+Kh+Ljy3Mz8PmNT9j4+qV0GjU+HnHHr3vV1aUY8Oqn7Br6yZcvnAe2poahIZHoM+A2/HgP59EREvDO5nWaDTYtmk9/tiyERdOn0JZaQl8fP3QqXtP3DfpEfTo26/BP19xUSF2bNqAA3/txuUL51BcWAgBAf+AQMTEt0b3W/pi6KixiIxqZfW5zV2PooJ8rFm+FH9t/x0ZqclgnCM2vg3uGDUG9zwwGW7uDfsgV5CXi9/Wr8GhPX8i9fIllBQXAYzBPyAQsa0T0KtffwwdNRah4RENOn/dn2HbxvU4uOdPJF04j+Ki2mr6gMAgxMS3Qfdb+mLY6LEIj2zZ6NeyhcjotvD08TdZ8Hf6wDb0HzUZbu7Ge3TYSkVpkdljgsKt2+GXMeZUndsoAbCTzHItxq8vQNcwJeYMCkKsn7yfwBmAxBAVEkNUmNIVqNQK7M+qTQb2ZalxsVDbrHekr9EZ/+l8VL7wcwtAqabYjhHVF+wRZvL7Qggc3b8XG1Ytx99/bINOVzvfFBis35L8z+1b8emsN1BcqD+8mpeTjV9/XoFtG9djxvtz0G/QHXrfP3X0MN6b8RKyr2ToPV5eVop9u//Avt1/YOKjj+Nf01626ueqrqrC9ws+x9rlP0CtroaXtzfaJXZG246dkJmRhrSkyyguLMDxQwfw3YIvMOzusXjyxf8gIDDIJtdjw6rl+OqTD1FZUXHjQZ0Ol86fxaXzZ/HHlo346Ktv4eNr+UiQVqvFd1/OxaqlS1Cj0aBTtx7417SXEd6iBfJzc7Bl7WocPbAPxw7uw7fz5mLMxEno3L1n/RMxhg6duiA0ItLoa1VWlOPbLz/D+pXLUKPRwNvHF+0SO8HN3QMZqcnISE1BUUE+jh3ch+/mf44R94zDv154Gb7+jWt122iMIap1Ii4e32P0kBp1NS6f3IcOvUyPFtjClWTTBX6MMSR0tTrBpQSAGHc8V4s7VuaiTws3vHtbgOyJwDVeSobBrTwwuFXt/HdRtYQD2Rrsz9LgQLYG5wpqmlVCYG60I86vNY7nH7ZTNIZFehn+5FZeVoqNq1di4+oVuJKWavIcy79ZiEVzZ5s8prqqCm+//ALmL/8Fsa0TAADbNq7DR6+/Aq3W9I6IK75dhJj4Nrhz7DiTx11zJS0Frz7zL2SkpsDd3QNPvfQqRt//oN4n7svnz+Gzd9/EqWNHICQJW9evweG9f+PtuQvQLrFTvXNaej20Wi1mv/kqtm5YazLGC2dOYc5br+H1jyzrP19VWYkZz/4Lxw/Vds0b99DDeOrlGXrDx0NHjcW3X36GpQu/gFarxS8/fodffvzO4PlG3/8gXvjfTIPfS026hBnPPomsjHR4eHpi6itvYNR9E6BU3Rh5vnDmFOa+8ybOnToBSdJh0y+rcGjv33jns4WIb2u+8K0phbaMN5kAAEDS6YNNngBIOh1O7PnN5DGdbx2OgBDjiVhdQggt59yp5taoBkAm+zM1uGNlLh7cmI+kEvm2nTUm0IPjzlgPvH6rH369NwSH/hGOr4YHYWpXH/SJdIeXkxcUakyMAABA2wCru4DZXIyv4XXKRQUFOHP8KEbcMx7DR99j9PlL5n2KxZ/Nwe3DR+Kjhd9iza4DWLPrAN6eOx/R8a31jtWo1Vj8WW3b4d/W/YL3Z7wMv4BAPDzlWXz+/Qr8uGkH5v34M8ZNegSszhKsr+d+DI3a/NLJ7CsZeOGxSchITQHnCsz6bAHum/xoveH21u3aY/biH/RGJArycjH9iYdx8expo9dj5L3jMexuw9dDp9PhrenPYeuGtejQuSuen/EmPl+6El8uW42nX54BvwD9grBdWzfj/OmTZn8mIUmY+e9nr9/8Ezok4qmXXjU4d/zoU8/hltsGmjyfQqFAcJjhkZ+M1BRMe2wSsjLSoVQq8f6XizH2gUl6N38AaNuxEz5dsgy9+994rdysTLz4+GSkXL5o9mdqSkFh5qcjrFx61yC7139jspVwZGx73D72/6w9rVN9+gdoBEB2B7JqMGxVHrqFqTCznz8SQ1QOuUFDgDvHHdHuuCO69s1aJ4ALhTU4mluDo7kanMivQXKxFmbuqw7DXM+mTsHdsOrS9/YJxoiEgPYGH28VG4eZn8y7/nVmRjpOHdUfrfh67sfYs3M7Pl+6Eh066+9P0m/QHejcoxemPjgOWRnp1x/ft3snflv3Cz5+cwbuHv8AnnzxP/D0utHFLaJlFNp36oKomFh89u6NT6hFBfnYs2s7Bg2/y+jPoq2pwRvTnkZhfm2XxTETHzRZP6BUKvHqe7Px5MSx1z/VV1aU47Xnp+LrVRv0hrPrXo+sK/Wvx8dvvIITRw7itY8+rRdnu8TOSOzWE09PHq9XHLnpl1Vol9jZaIwAsG7FMhzc8+f1r8dOfKhegnSzJ55/CQf+2n3j51SpsOCnNYhr09bk66jV1Xjtham1NQUA7vvHY+jco5fR41Vubnjtw0/wxPgxyMm6AgAoKynBa89PxcIV6+DlbXwjrKbkG2B+x9yK0iJUlZfAs5G78xmiUVdh19rFOLXvd4PfZ4yhS78RGDj2nw1phOQYDUSsQCMADuJYbg3Grs3HbcvzsCNN7fA3UgUDOgSr8FAHL3x0ewB+uy8Uxx+JwM+jgzGzvz8mtPNCxxCVyeV2cjI3AtAztK+dIjGuY5BlG4slduuh93VRQT5SLl7A/GW/1Lv5X+Pr549JT+jvNChJOsx5+zVMf/MdvPC/mXo3/5uNuf9BhITpF0qeOmJ6uuSnJV/j0vmzAGp3Xpv4yOMmjwcATy8vPPvK63qP5eVk48uP3jH5vM7d9W+MRQX5OH38KOYv+8VoktIusRNu6T9A77G6SURdWq0WyxbN13/tHr1NPie+bTskdLgxuqStqcHShfNMPKPWDwvnIS2pdgc8pVKJCQ//0+xzvH188dTLr+o9lpmehkVz5WtX7+ljWV2FtcvvDNFqNaiuKENBdjoun9yHXWsX45tZTxq8+StVbujYewgmvzQXQ8ZPaWgXRKdLAGgEwMFkV2jxxNZCuCsZXunti3sTPOHj5hx5mqeSoXu4G7qH3/jjqZEEkop1uFisxYXCGlwoqsHFYi3SSnWQc9GB2kwCEOfXBhFeLZFdecVOEenzVHqhfaBl0xB1i+O8vL3x5pwvoHIz/SbWu9+Aeo898fx0s/P5jHN07NINu7fdmEO9eSShrtLiYqz49uvrX3fs0g1hkS1MvsbNMXbo3BVnT95oyPL7r+sw4ZHHEZdg+FNz3WI3d3cPzF601GzlfbfefbH/z13Xvzb1MwHAySOHUJCvv29EuAU/V9det+hNZezdtQPampp6Q/nXFObnYfUPN+oFuvXui4Agy3rh3zZkGOLbtkPShRsb52xY9RPG/+MxtGgVbdE5bMnNyL4AdVVVlDbqdQqy0/D5S/ebPc4vKAx9h09EQrf+tlh54HQJgHPcWVyQWivw5t5SdP0+B09vL8KFIuesyldxhnZBStwd74EXe/liwbAgbL8/DKcejcCGe0Mwd0ggpvX0wb1tPNEtTIUAd/v8Spaqzdfq3N5yqB0iMaxX2K1QMMvyc3cP/cZFSpXK7M0fAELCwusd5+1j2dLDujfw0lLjS7s2/rJCr+K+U50RC3PuGjdB72shBNYsNz494+6ufz3cPT0sWnbXspX+Tq5qdTXUauMbfV04c6reY5Zc99jWbfS+1qjVSE9JNnr8+hXL9OLo2NW6bXRH3qt/I5QkHdat+NGqc9iKQmHZ73SNxj5bcZcW5mL7qvnY8M17OP73JlRXlDXmdNbvaiQzGgFwAluSq7EluRqhXgq8cosvhsV4wEvlmEPrlnJXMHQMVqFjsAqA/ht2sVpCSokOaWVaXCnXIaNMh8wyHa5U6HClXIdqbeNToaJq8wnA8FZjsOKi4UrtpnZb5BCLj1U1YtMWb28fFGtuvG+Zq/q/xtNT/5OcqSLArevX6H0dFRNnRYRAv0FDMOctptdMa/e23zDtf28ZnG9Xqhr2tmZomZxGra6XUFxTVlI/6TH1Sf6aussSAaCk2Pi947cNda5ftHVbzt82eCjmfTBL77FdWzdj6vRXrDqPPTV25/bgiGj846W50ElaqCsrUF6cj/ysVKSeP4pLJ/ZBp7vxe67TaZF24TjSLhzHrrXfoH2Pgeg74gH4BZpehmuA/doY2gglAE4kr1KHF3fWrk0fEuOOp7v5oEtI8+v3H+DO0S2Mo1uY4TfSgiodMssl5FRJyK3QIbdSQm5l7b9zqnTIq5RQWKUzWUdRrDbfo/mW8P4I92qBnErj1cJNZUjUSIuPbczGKKYK1qx5nrGuapnpaUhLTtJ7zD8w0KrXCggKRqvYOL3zlJWUIPnSRSPL2hr2B2Hoxi2Z6Jjo7lk/MSgqyDe5hh8wnLC5uRluPJR04Txys/R///ysvH5hkS0QHtnyejEgUFtLkX0lw2gDqKZy843XFEunCkxhnEPJ3aD0c4O3XyDCoxOQ2GcoSoty8duyuci4VH8ER6etwekD23H+2F8Yev9T6NBrkDUv6XTbd1IC4KR2pKqxI1UNFQee6OyDBzp4oaWPY/QUaGrBngoEeypgqj5boHaYv6haoEitQ5FaQnG1QGG1DsXVAm0DzP/qc8ZxX+tJ+PLkRzaL3RJdgnughbflb8wNaFdqNzfP3V/jZsEweV3xCe3rJRJpyZcNJgCN3inOQjFxres9lpJ0yWwCUF1Vpfc1Y8zoqMiZE8fqPdag69e2nV4CAADpKUl2TwBqTEyp3MzHz7okxxp+gWEYN2Um1iycifSLJwweo9WoseXHTyBJOiTecofBYwxwuhEAqgFwcjUS8OXxcgz8KRc9l+Zg0YlyZNl5J0JHxAD4u3PE+ivQPcwNQ1p5YFyCJx7v7IPpvX0xuo1lBT8TEx6BG7dv++Z7Wz9o19drSpnp9RvzSA2o/oyIqn+jKiky38q1KfXo269eD4Mj+0w3uQFqlynerGPX7vX6EFxjq+sXaeBGX1Ro/ynrKgvm2Bnn8A+1vAFPQygUSoyc/CJURqZ3rtm+aj6Kci0rBGaMOd0IACUAzUixWsJ7B8pw2/Ic9P4hB0tOlSOnkpIBgyzcnCnEIwxj4x9o4mBu8HcLxOhY89XLzqK8rP4bfmVFudXnMdQGWK4Ntq7x8fXDyHvH6z22beN61GhM94M5cfig3tcPPT7F6LHlZfWr4SvLG3D9DKwakHT236q0vDjP7DEhkTFQKps+6fb2C0SXW+80eYxOW4N9v/1k0fmEEDQCQBxDYbWEWfvK0G9ZDrp9n4NPDpXjUrFW1qV3zupfiS9AZadRgMntHoensvHzn47C0PREQV6u1ecx1JPAx8+3QTHZ0j+fmaY3jF6Yn4dlixcaPT49JRn7dv9x/esR99yHvgMGGT3e0PXLz7N+jbzh62f/XS+L87PMHhPTrpsdIqnVrnv9pbB1XTq139LaBfPZjYOhBMAFlGkkfHGsDHf+nIf232Rh+u5iHMxWo7LGlbMBy3/2Ft5RmNTOfOOaxgpwD8TD7Y1/GnRGfgH153JNLXkzxlBVeGRL63cJtDUfXz98uGCJ3o6FS7+ah81rVtU7NifrCl5/Yer1TYoGDr0T01572+T5DV0/c/s/GGKo2FOO65eXmWL2mISu/Zs+kKtCW8aDc9O1U1qNGkU5GSaPuSrNJkHZERUBuhidANZcqMKaC7WFSNH+Sjzc3hODoj0Q7aeEwnHryWQ1tdO/8Wvyz8ivtv7Tq6We6fJf+Kjk/1RrS9Fx9fczsKTHfl0ajf4yQ6VSiTbtOzQ4LltqGR2DhSvW4qtPPsKvP/8EIUn4+M0Z2LLuF/QZMAieXl5IunAOOzb/iuqqKvgHBOKRqc9hzMSHzBZwxsTXLzRs0PWrs0zT3cMTMXX6EdhDZvJZk98PbRmHiOgEO0UDcIUCHt6+qCwzvfNnVaVF/QFSbBGTPVEC4OLSSrSYtb8Ms/aXgQEYHOOOe1p7oUe4G8K9GLgDV5g3noClS8Z8VL54tde7ePGvphkJSAzqhgltHm6Sc8spsWt3MKa/hv/S+bMoKymxanvashL9N+guPXvD3aPp94y3FOcK5GZnIjg0DBMe+T9cPHsGGanJ2LxmFRjjCAgKwpCRd6NHn37oN/gOo70F6urUvX6//3OnTqCqstJoq2ZD6vYs6H5LXyiV9n37L8zNMNvit/cQy3aVtCVLaklUKsPLNG86RzVjzPz8hoOhBIBcJ3BjeSFQe2sc1ModY9p4oleEOyK8ePPqOSAEYEWCc2f0GIyIHostaetsGoaKu2FW30+hYM1vGWdgcAgSu/XQ66svJAl/bt+Ku8ZZXuyYnalfiT14xN02i7GxykpL8J8pjyE9JRnzflxtcNSjoSJatESb9h1x6dyNHfK0NTXYs3M77rhrtMXnyc7UH8IeMmKUzWK01LlDO01+PyyqNdpaMCdvS1qN2nzbYcYQEGq2xXMaY8zp5lSpBoAYJQD8ka7GtD+KMWB5DtouzsJ96/Ox5GQ5ThfUoMIFawjeuOUjRFqxRt8Sz3b5D9oGdLTpOR3JmAkP1Xvs15+XW3WOy+fPXf9vXz9/DBnpGAmARq3GK089jvOnT2HcpEdsevO/ZvT99ZeFblhl5fW7cOP6BQQFY+CwEY2OyxpajRon9241+n2FQolhDzxj954WV5LOmF0RFBGdAA8vsy2yrS9scQCUABCLCdTuWjhrfxnGrMlHl++y0eW7HPz3z2JsTq5GSqlt2vTaj/Wx+rkFYHb/r222KqBfxO14rMPTjTqHZKQLnyUaupTOmucNHnFXve1uz58+pbctrikF+Xl6N7CJjz0OD0/jw/+muveZ1IBr8f2CL643O2oZHduw1zVjxNhx9TbuOXnkEI4d3GfR83OyrlzfSRAAJj0+xaI9C2zp0B9rUFlufL+IIeOnNkfu/gAAG8VJREFUIKyl5cmTud8/SxOJU/u3mT2mx0CLRlpSLHpBB0MJAGmUihoJq85X4ZntRbhjZS4Sv81Gt+9z8OLOYqy9WIWLRVqUa6SGvLfaQcOC6hrSE//r/X6jXz3cKxIf9F8A3si+5+oq/e5q5tah36zu8iZL9wKo+zxTewFwrsC0196qV20978NZJjfbuWb9ih8hrt7UY1snYPzkx0weX1VZofe1tqbG7GsAuF6dfzNNtfH41OpqvU2JFs39GBtWLcelc2eQl52FspISaNTq67E3lFKlwgszZta7qX3xwSyLfra1y3+4/t9tO3bC2AcmW/S6kmS+T4Cw4G8oO+0iDvxef1UEAIAxDBz7GDr1HWZRTNdjM7Msj1uw6dCVpDO4cPxvk8fEtu9h0VJBAEnmD3E8VANAbK5MI2HdpSqsu3Sj5SkDkBiqxMAWHugapkLrACXCvBTwUjJrpuFty/IawHrGt56MrIoMLDg1p0HP93cLxJe3/4ggd8u2dTWlbovXqspKVJSXwdvH9IoCbU1NvaYyJRZ2h6tbVJaXkw0hSUb3Fkjs1gP/9+w0fH3TXvQZqSn48H//xYwPZhtdinXu1Ams+HYRgNold69/PNfsp9e6y+QqKypQXVVlctQAAIqL6v/sOVmZRlv75mRm6rX1LcjLxaez3jB4rFKphJu7Bzw9PeHp7Q1vH18EBgUjKjYO3fvcilv6DzC5HK3nrf0x+YmnsPSredcfS754AbPf+h9efut9o594Tx09jF9+rN3Qyj8gEK99+CkUCstqTTTVVRYcU2ny+znpl7D267cNrqNXuXtg2MRn0a77bRbFc7NqM1X55ub18zNT8OuS902O+oRFtcZdD0+3tE7otPlDHE/zqzoyIvDuF15v9BZTpFFyKyUczNHg16RqfH+mEvOPl+Pzo+XYcLka54u1yK+UoNYJMMag4oCCs4beny3XiMK7PuG3oUxTghMFh80ffJM4vzZYfMdqtPFv3+DXvqaivAxz351Z70YeGByCjl1MN1RZs3xpvWH44sICDB99r8mbbHFhAT5//229m59Wq0VUbBziEwxtzlOrU/eeUKurcfrYkeuPpVy+iHMnT6Bzz17w8dVvTLNz6ya8Nf15VFdVISAwCO/PX4zW7Uwv/ausqMDn779VbxQgKCQUHTp3Nfo8IUmY99E7yMrQb9PLGEe/QYZ7wfv4+WHH5o31VigYIkkSamo0qKqsRGlJMQrycpGRloIzJ45hx6YN+GPLRrRL7Gxy2+KuvfugtKQY507d6F9/+fw5XDp3Fl169oaX9415aiEEdmzagFn/mQaNWo3gkFB8sGCJwWWFxiSd2o+0C/X3criZu6cX4hN713u8sqwYB7atwu8/fQGNun4iEdehJ8Y+/hpaxjes9uX4X5tQkJ1u9Pua6kqEtohFUHireo8f2bUeW5Z9CnVVhZFn1zYIGv3P/8Ld8k2J/jtz5kwz1YSOpznVdJsUvyBFC9YMy6ybMQYgyleJrmEqtA9UIN5fhZa+CoR6KeDnxuCuYI1flcCVaOyfwZxjb2HxmS8sOnZYq7vxTt/P4K0yW1Rk0roVPyI/Nwc7f9uEzPT6/UcY5xg0fCTatOuAFq2irxd9/b1jG9JTknDmxDHs2bnd4FxqaEQkBg0fiYgWURgwdDiCQ8OQfSUDh/ftQXpKErZtXI+igvptzzlXYPCIu9C+c1f06tsf0UZuNls3rMW8D2bptblVKBTo1L0XWsXGQl2txunjR67/XH0HDsa0195CSFi40euxcfVKFBbkYduv65CRmmLwegwZMQoJHRLRIioa/YcMhbamBr+tX4PSkiLs3fWHXmJys1633oYefW5FTJuEel37sjOv4I1pT+tV6TeUu7sHZi9eajJRAWp/1gWz30NlxY0bmFKpRJeevdGiVQyqq6pw6thhZF+prfy/bcgwPD/jTQSFhFocS3baRfyy4A2TN8lrwqMTEBnTDkqVCtWV5cjPSkVO+qV6Ux+cKxCX2Bs9B41t8I0fAM4f/RObf5hjdmqFcY74jr0RFB4FbY0ahTkZuHL5DLRa41Nk4a1ao9/ISYjt0NPieIQQxZzzptu9qAlRAkCcmooDbQLdkBCoQLyvEq38FIjwUSDIg8PHjcNbBbhzBpWCGW5yxBSADQaGfjj/NT488jp0wvC8KQPD811fxROJzzf6tQDgq08/sriXe1hEJMZNegRAbeKQm235cuW77r0fLaNjcOncGfy2fo35J1x1+7AR6NTd+JtoaXEx1q34ATs2/1pvlz+gttK/z4BBGD3hQXTq1sPs6y2YbXlNRniLlrj3wX9Ao1bjmy8+sfh5UTFxuHv8xHqPFxcV4tExd6JldAyiYuKQl5ONosJ8lBYVoby8zOIaBACIS2iLRT//ava44qJCrF22FDu2bMSVtJR63/cLCMCttw/BmAkPoX2nLmbPV1qUiyM710OnrUFhbgauXD5tk70WvH0D0bJ1R8S0647WnW6Bp4/lvR+uKchOw/G/NqO6shS5GUkoyrPd9txcoUBoy3i0atMZbbv1R3gr65sjCSH+5JwPtFlQdkQJAHEZDECQB0eMf+0oQoinAoOiPDEk1ja99/dk78KLfz2OMo3+/DgDwzu3fo6xcRNs8jrNTUlxETLT01BRXgY3N3eEhIUjMqqVQ29zfE11VRVeevJRlBYX4ctlqw3WXdRoNKiuqkJ1dRU06mpo1BpUVVagpLgIOZmZOH/mJP7avvX6J/pv1mxCTLzlN6LiwgJkpqehsrIC7u4eCA2PQHiLllZdv6ryElw+dcDi4w1hnEOhUELl5g5PH3/4B0fA2wbb+pYV5SH5rHXTbEYiBOccKncPeHj5wjcwBAHBkeAW1kQYI4T4knPeuKU8MnH8vzAboQSAGNI93B0/jzU+tGytc0Wn8Mi2sSivuVGkNKXTv/Fsl//Y7DWIY9DW1OCVZ57A0QP7MO+Hn9EusVODz5Wfm4OpD45DYX4e3vl8IfoOHGzDSElTEkJM4Zwb3wHKgVFRHHFp5ws1Nt0hsX1gJ7zUY+b1r/3dAvGvxBds9wLEYXz85gwc2bcHtw8d0aibPwCEhIVfLza0psUvcQjH5A6goSgBIC6tskbgfKHl6+YtMTZuwvVNfW6NGAh3hek+4sT5bF77M37/dS0AoP+QoTY5Z2lxERQKhdmVDsRxXN0D4KjccTQUJQDE5R3KNt7EpiFU3A2dgmuX4MX62X/HNdK0ykpKMP+j965/zRWNfxvNykjH3t1/YMDQO+sthyQO7SBjzLafIOyIEgDi8g7n2DYBAIAo7xgAgG8z296XALt+34KK8hs1Hiu/XazXE8FaxUWFeO2FqVAqlXji+em2CJHYj+lWgg6OEgDi8g5n2z6BD/So7fAnNbDdMHFcos7eC+dPn8TUh8bhwF+7rV46d+Cv3Xj6ofuQevkyXnnnY0S0tO1GU6TJOXUCQK2AicvLLNciu0KHCG/bLRLxUnoDAKq0plulEuczZOTd+GnJ19cb7QBAWtJlvPL044ho0RJ9BgxCu8TOaBkTi8CgIHh6eYMrFKhRq1FSUozM9DRcOH0Kf+/chrSky3B398DrH8+1WS0BsQ9Rm+3tkTuOxqAEgBAAh7PVGNXadtXX1wr/SjXm28QS5+Lt44tPFv+AmdOf02vLC9R2Bly34keLzxXfth1efXc24hLamj+YOJqznHPLNs9wUDQFQAiAfVnmd6WzxrXtgikBaJ7CIlvgi6UrMX3muw3aBrhldAymvfYWFvy0lm7+zmuX3AE0Fo0AEAJgd7ptE4COQV3RK+xWVOtse17iOBjnGHnPeIwYex9OHzuCvbv/wNkTx5CWnITiwoLr9QCMcwQFhyA6Lh4dunRDn9tuR2K3Hk7R6ZCYtFnuABrLZX4DqRMgMWfrhEi0DlDZ9Jw6oYWCUZ7taoQkoaqqCowxeHh60s2+mRFCqAEEc87N75bkwGgKgJCrbD0KAIBu/i6KcQ4vb294ennRzb95+tPZb/4AJQCEXLcrveFruQkhLsXph/8BSgAIuW5/lhpVWlq3Twgxa4vcAdgCJQCEXKXRCezLpKI9QohxQog0zvkZueOwBUoACLnJb8k0DUAIMWm13AHYCiUAhNxka0oltLbcH5gQ0tyskDsAW6EEgJCblKgl/JVB0wCEkPqEEKmc8/1yx2ErlAAQUsevSdS/nxBi0Eq5A7AlSgAIqWNbShU0OpoGIITUQwkAIc1ZmUbCbpoGIITcRAhxmXN+SO44bIkSAEIMWH/R6Zt8EUJsa5ncAdgaJQCEGLA1pQpF1ZLcYRBCHIAQQgKwWO44bM11EgDG0uUOgTiPGklg9YVyucMghDiGbZzzVLmDsDWXSQAEkCV3DMS5rDxH0wCEEADA13IH0BRcJgEARIncERDncrm4Bgez1XKHQQiRkRAilzG2Tu44moLrJAACxXKHQJzPirM0DUCIi/ueMVYjdxBNwXUSALCLckdAnM+mpEoUq6kYkBBXJIQQaKbD/4ArJQAMJ+UOgTgftU5g2RkaBSDERW3knF+QO4im4jIJgASJEgDSIN+fLqPOgIS4po/lDqApuUwCkJoZe0FAFMgdB3E+eZU6rLtEKwIIcSVCiIOc811yx9GUXCYBwEwmMcG2yB0GcU6LTpSBxgAIcSmz5Q6gqblOAgAAjP0qdwjEOV0qqsHu9Cq5wyCE2IEQIoUx9rPccTQ1l0oAdG66LRCgXV5Ig3x1vEzuEAgh9vEJY0wndxBNzaUSgNTH4ooFEyvkjoM4p32Z1dQYiJBmTgiRyRj7Su447MGlEoBafJ7cERDn9clB6idFSDP3LmPMJUaKXS4BSH4y+iAgDsgdB3FO+7PU2HPFJd4bCHE5Qog0xlizbfxTl8slAADABH9D7hiI85pziLaVIKSZmsUY08gdhL24ZAJweUr0FgHslDsO4pyO5qixi1YEENKsCCGSGGNL5I7DnlwyAQAASOw/codAnNecgyXUF4CQ5mUmY0wrdxD25LIJQPLU6AMQWCR3HMQ5ncrXYO1F6g5ISDNxmDG2VO4g7M1lEwAA4Gr1vwVEutxxEOf00f5iVGppHIAQZyeEeJ4x5nJ/zC6dAFx6vm0pF/xfcsdBnFNOpQ4LjlJBICHOTAjxE+f8b7njkINLJwDA9YLAz+WOgzinRSfKkFHmUtOGhDQbQogqAC/LHYdcXD4BAIAg5P1bCPGX3HEQ56PWCXywn5oDEeKkPuKcu+w0MJM7AEcR80VyhELJj4AhUu5YiPP58e4w9G3hIXcYhBALXW3604ExVil3LHKhEYCrUp+JyxaC3QMhqLSbWG3Gn4VQ61yuhogQZzbVlW/+ACUAepKnRh+QwMYJAZfpBEVsI6VEi88PU0EgIc5ACLGcc75J7jjkRglAHSlTYrZy4GFASHLHQpzLVydKcbaAckdCHJkQogDA83LH4QgoATDg8pSYFQLiCUoCiDV0EvDK7kLQTAAhDu1Fznme3EE4AkoAjEh+Mu4bgE8SELTGi1jsZJ4G354skzsMQogBQoitnPPv5Y7DUdAqADNiF6aOYcBKBrjLHQtxDp5KhvXjIhAfoJI7FELIDSVCiK6c81S5A3EUNAJgRsqTMesF2J0QolDuWIhzqNIKvLCjAFqJ5gIIcRRCiKl089dHCYAFUp6M3sUUvA+A83LHQpzD6XwN5hyiVQGEOAIhxA+c8+Vyx+FoaArACjFLkgMUGrYSYMPkjoU4Ps6ApaOoQRAhchJCJAPoxjkvlTsWR0MJgLVWCkV8UepbEHgFjNH1IyZFeCuwaXwk/N1psI0QexNC6AAM5JzvkTsWR0TvStaawHRJT8bOkMBGCCFoKQkxKbtCh1d3U/kIITJ5m27+xlEC0EApU2K26oCuAtgpdyzEsW1JrsTiE7Q0kBB7EkJsYYy9LXccjoyGsBvrDcHjI9OeAxPvAsxT7nCIY1JcrQfoQ/UAhDQ5IUQSY6wXY6xI7lgcGSUANhI/Pz1BcGkJA/rLHQtxTMGeCqwfF4EIb4XcoRDSbAkhqhhj/Rhjx+SOxdHRFICNJE1tdTE5M3qgAF4UEOVyx0McT0GVDk//noca6g9ASFN6km7+lqERgCbQ5qv0KElIcwDcL3csxPE80MEH7wwIkjsMQpodIcQ8zvkzcsfhLCgBaEJx81OHMSa+AGNt5Y6FOJbX+gXi0U6+codBSLMhhPiNMXY3Y4z2b7EQTQE0oeSpMb97BJV3FgL/plbC5Gbv7C3CtpQqucMgpFkQQpwAMIFu/tahEQA7iVmSHMA1/FUm8CwYqBScwFPJsGx0OLqEuskdCiFOSwiRCaAP5zxD7licDSUAdha/8HK0gOJtJjAJjFE5uIsL8VRg9T3hiPJVyh0KIU5HCFHOGBtARX8NQwmATGqXDer+R4kAaROowqqx4fBzoxk5Qix1tc3vGM75JrljcVaUAMis9ddpbSSdNAMMkxkYfQx0Ud3D3fH9qDB4KelPkhBzhBACwCOc86Vyx+LM6N3GQcTMT47ljE8DE/9kYD5yx0Ps79YWHlg8MhTuCvqzJMQUIcRUzvkCueNwdvRO42BqtxzmUyDEs2CshdzxEPsaHO2JBcNDoOT0p0mIIUKI6Zzz2XLH0RzQu4yD6rnwkKoAIQ9wwZ4CQ1+54yH2c1e8Fz69IwQ0EEBIPTMZY2/KHURzQW8xTiDmq+RuXLCpAB6i6QHXMK6tNz64PRg0EEBILSHEbM75dLnjaE7o7cWJtJl7wU/n4TEZEI8zoLvc8ZCmNaaNNz4eFAwFLQ4gLk4I8S7nfIbccTQ3lAA4qbgFaZ0ZxCNgmAQgQu54SNMYFuuJz4eGQEVDAcR1vcIYe1/uIJojeldxdiuFIr4g5U4w9giAu8GYl9whEdsaGOWB+cND4UFLBIkLubrU7znO+Rdyx9Jc0TtKMxL+fZa3T6XmbgmYyICR1HK4+bgl0h2LRoTCW0XzAaT5E0LoGGOPM8a+lTuW5owSgGaq3aKzvhqtx2gwNoEJDKORAefXOdQNi0eEItiTGkeS5ksIUQ1gMud8tdyxNHeUALiAqNlpnipvMZQBYwCMBkO43DGRhmnlq8SikaFoE6CSOxRCbE4IkQdgLOd8r9yxuAJKAFyNECzm65Q+CsFGC8FGMIjuYIx+D5yInxvHguEh6NOCZnhI8yGEuMAYG8kYS5I7FldBb/wurs3izFBJox0quHTn1akC6j7oBFSc4b3bg3BvgrfcoRDSaEKIPwHcwzkvlDsWV0IJANFTu7xQGizABoGJgQwsWO6YiHHP9fTHcz396Q+ZOC0hxI8A/o9zrpY7FldD7xvEOCFY/Pz0RMGl2xljgyAwgOoHHM/QGE98PDgYvrSdMHEiQggtgJc455/KHYurogSAWCX6q5Q4hSRuBeN9mRB9BVg3xkAVaTKL9VdiwfBQJATS/wri+IQQOQAmcM53yx2LK6MEgDRKzJJkD0U16wnGegPoISB6MKA9GKO1anbmpWR4f1AwRsXTik/iuIQQewGM55xnyh2Lq6MEgNhc1Ow0T6U368Ig9ajds0B0EWAdGYOv3LG5gv/r4ov/3BJIewgQhyOEmMcYm8YYq5E7FkIJALEXIVj8V0mtIPFOYCxRMCQCSATQnnY4tL0uoW749I4QxPgp5Q6FEAghCq529lsrdyzkBkoAiOxivkiO4G48ATrRFpwlAEiAEAkMaE0dDBvOS8nwev9A3N+O8isiHyHENgAPc86z5I6F6KMEgDi0tguvhGiFNlYwEQPBYgDEMIhYgEULiJYMCKFGRqaNiPPCOwMCRYCHgq4TsRshhAbAq4yxOYwxIXc8pD56QyBOrefCQ6oSFh6u04kWHCJSYmgBIBJMhAMshAkRLIAQBhYimAhmYM1mTFwIlDGGAgGRDyCfCVYgIPIZkMUEy5I4MjlDVo0WmSlTWnkB+JYxNlTuuEnzJ4Q4hdp+/sfljoUYRwkAcSnxCy/7K3TKYAHJX6tQ+AHCnwnhB8b9GIQfhPATjPkwAU8AngA8BIMnBDwAeIDBE4A7AxQCggNQMMEUAkLBwBSCQQEhGAOTAKETDDoGphNC6BigA5hOQGgZUI3af6oAVAtW+28IVDOGCgiUCsZKIYlScFYqGCtVSLpScF6q4Sjy9SvLPzOhk8ban1+SpMcAzGaMBdruqhJSSwihBvAuY+w9KvRzfJQAEOJiJEkKB/AZY2yC3LGQ5kMI8Rdj7AnG2Dm5YyGWoQSAEBclSdJoAF8yxqLkjoU4LyFEKYD/MsYW0Fy/c6GVwoS4KM75BgAdhRBzhBA0XEusJoRYDqAj53w+3fydD40AEEIgSVJbAHMYY6PkjoU4PiHEIQDPc873yB0LaThKAAgh10mSdCeATxhjHeSOhTgeIUQWY+xVAN/RJ37nRwkAIUSPEEIphJgK4DXGWKjc8RD5CSEqAcxljL3LGCuXOx5iG5QAEEIMEkL4CCGeBTCdMRYkdzzE/oQQ1QAWAHifc54jdzzEtigBIISYJEmSH4BpAF5kjPnJHQ9pele7+C0G8A7n/Irc8ZCmQQkAIcQikiQFAZgO4GlKBJqnqzf+pQDe5pynyh0PaVqUABBCrHJ1ROAJAM8zxlrJHQ9pPCFEMWqH+j+jTXtcByUAhJAGuVosOAG1NQLd5Y6HWE8IkQLgU8bYYirucz2UABBCGk2SpCEAngEwmrHms+FSM7ZLCPElY2w1Y0wndzBEHpQAEEJs5uo+A48CeJwx1kbmcMhNhBC5AL4FsIhzflHmcIgDoASAEGJzQggmhBiE2lqBcYwxd5lDcklCCAnA7wC+Zoytpx36yM0oASCENCkhhL8Q4h4AEwAMY4yp5I6pORNCCAB7AKwE8DPnPFPmkIiDogSAEGI3QohAIcS9ACYCGEL1ArYjhNiP2pv+Ks55utzxEMdHCQAhRBaSJAUDGAlgBIA7GWMhMofkVIQQFQC2A9gCYBOt2yfWogSAECI7IQQXQvRCbUIwEkBvxhhtV16HEOI0am/4mxljfzLGNHLHRJwXJQCEEIcjhAgQQvQD0J8x1l8IcQtjzFPuuOxJCKEFcAzAXwD+BvA3NekhtkQJACHE4QkhVEKI7gD6A7gFQBcAbZtLDcHVwr1kACcAHEbtDf8A57xC1sBIs0YJACHEKUmS5M4Y6yCE6AKgM64mBQCiHDUxuHqjz2KMXRRCnGSMnRRCnGCMnaJOfMTeKAEghDQrQgglgCgAsUKIOACxAOIARAAIARAMIIQx5mXj11UDKACQf/XfOQBSrv6TfPXfqZxztS1fl5CGogSAEOKSJEnyBBB8dfWBjxDCDYA7Y8z92n8DcAPAAaiv/qMBoGaMaYQQasZYJa7e9OkTPCGEEEIIIYQQQgghhBBCCCGEEEIIIYQQQgghhBBCCCGEEEIIIYQQQgghhBBCCCGEEEIIIYQQQgghhBBCCCGEEEIIIYQQQgghhBBCCCGEEEIIIYQQQgghhBBCCCGEEEIIIYQQQgghhBBCCCGEEEIIIYQQQgghhBBCiO38PyNTJVwTCyLFAAAAAElFTkSuQmCC;" parent="1" vertex="1">
          <mxGeometry x="431" y="445.87" width="112.5" height="112.5" as="geometry" />
        </mxCell>
        <mxCell id="Bfw-wWZjnoTn03Cb8_oc-3" value="&lt;font style=&quot;font-size: 16px;&quot;&gt;FILE COLLECTION&lt;/font&gt;" style="text;html=1;align=center;verticalAlign=middle;whiteSpace=wrap;rounded=0;" parent="1" vertex="1">
          <mxGeometry x="693" y="422.25" width="60" height="30" as="geometry" />
        </mxCell>
        <mxCell id="Bfw-wWZjnoTn03Cb8_oc-4" value="&lt;font style=&quot;font-size: 16px;&quot;&gt;CHUNK COLLECTION&lt;/font&gt;" style="text;html=1;align=center;verticalAlign=middle;whiteSpace=wrap;rounded=0;" parent="1" vertex="1">
          <mxGeometry x="693" y="559.25" width="60" height="30" as="geometry" />
        </mxCell>
        <mxCell id="Bfw-wWZjnoTn03Cb8_oc-6" value="" style="shape=cylinder3;whiteSpace=wrap;html=1;boundedLbl=1;backgroundOutline=1;size=15;" parent="1" vertex="1">
          <mxGeometry x="594" y="403" width="60" height="80" as="geometry" />
        </mxCell>
        <mxCell id="Bfw-wWZjnoTn03Cb8_oc-7" value="" style="shape=cylinder3;whiteSpace=wrap;html=1;boundedLbl=1;backgroundOutline=1;size=15;" parent="1" vertex="1">
          <mxGeometry x="594" y="534.25" width="60" height="80" as="geometry" />
        </mxCell>
        <mxCell id="Bfw-wWZjnoTn03Cb8_oc-8" value="Song files metadata" style="text;html=1;align=center;verticalAlign=middle;whiteSpace=wrap;rounded=0;" parent="1" vertex="1">
          <mxGeometry x="797" y="420.25" width="60" height="30" as="geometry" />
        </mxCell>
        <mxCell id="Bfw-wWZjnoTn03Cb8_oc-9" value="&lt;div&gt;Linked list of song chunks&lt;/div&gt;&lt;div&gt;stored as BLOBs&lt;br&gt;&lt;/div&gt;" style="text;html=1;align=left;verticalAlign=middle;whiteSpace=wrap;rounded=0;" parent="1" vertex="1">
          <mxGeometry x="797" y="562" width="189" height="30" as="geometry" />
        </mxCell>
        <mxCell id="Bfw-wWZjnoTn03Cb8_oc-11" style="edgeStyle=orthogonalEdgeStyle;rounded=0;orthogonalLoop=1;jettySize=auto;html=1;entryX=0.5;entryY=1;entryDx=0;entryDy=0;entryPerimeter=0;" parent="1" source="Bfw-wWZjnoTn03Cb8_oc-1" target="Bfw-wWZjnoTn03Cb8_oc-6" edge="1">
          <mxGeometry relative="1" as="geometry" />
        </mxCell>
        <mxCell id="Bfw-wWZjnoTn03Cb8_oc-13" style="edgeStyle=orthogonalEdgeStyle;rounded=0;orthogonalLoop=1;jettySize=auto;html=1;entryX=0.5;entryY=0;entryDx=0;entryDy=0;entryPerimeter=0;" parent="1" source="Bfw-wWZjnoTn03Cb8_oc-1" target="Bfw-wWZjnoTn03Cb8_oc-7" edge="1">
          <mxGeometry relative="1" as="geometry" />
        </mxCell>
        <mxCell id="Bfw-wWZjnoTn03Cb8_oc-14" style="edgeStyle=orthogonalEdgeStyle;rounded=0;orthogonalLoop=1;jettySize=auto;html=1;exitX=0.75;exitY=0;exitDx=0;exitDy=0;entryX=0.618;entryY=0.98;entryDx=0;entryDy=0;entryPerimeter=0;fillColor=#d5e8d4;strokeColor=#82b366;dashed=1;" parent="1" source="1slNe64gq0bpDraKGNJo-7" target="1slNe64gq0bpDraKGNJo-2" edge="1">
          <mxGeometry relative="1" as="geometry" />
        </mxCell>
        <mxCell id="Bfw-wWZjnoTn03Cb8_oc-15" value="(4) Song streaming using buffer from backend endpoint. Accepts byte range requests" style="text;html=1;align=center;verticalAlign=middle;whiteSpace=wrap;rounded=0;" parent="1" vertex="1">
          <mxGeometry x="250" y="313" width="137" height="87.75" as="geometry" />
        </mxCell>
        <mxCell id="Bfw-wWZjnoTn03Cb8_oc-16" value="(2) Store song data using GridFS and BLOB" style="text;html=1;strokeColor=none;fillColor=none;align=center;verticalAlign=middle;whiteSpace=wrap;rounded=0;" parent="1" vertex="1">
          <mxGeometry x="265" y="509" width="170" height="95" as="geometry" />
        </mxCell>
        <mxCell id="Bfw-wWZjnoTn03Cb8_oc-17" value="(3) Get song bytes from BLOB" style="text;html=1;align=center;verticalAlign=middle;whiteSpace=wrap;rounded=0;" parent="1" vertex="1">
          <mxGeometry x="274" y="422.25" width="137" height="87.75" as="geometry" />
        </mxCell>
        <mxCell id="Bfw-wWZjnoTn03Cb8_oc-19" value="" style="endArrow=classic;startArrow=classic;html=1;rounded=0;entryX=0;entryY=0.5;entryDx=0;entryDy=0;exitX=1;exitY=0.5;exitDx=0;exitDy=0;" parent="1" source="1slNe64gq0bpDraKGNJo-7" target="Bfw-wWZjnoTn03Cb8_oc-1" edge="1">
          <mxGeometry width="50" height="50" relative="1" as="geometry">
            <mxPoint x="309" y="546" as="sourcePoint" />
            <mxPoint x="359" y="496" as="targetPoint" />
          </mxGeometry>
        </mxCell>
        <mxCell id="xlgNepKT2mXGpS5i2Fq9-1" value="BLOB" style="text;html=1;align=center;verticalAlign=middle;whiteSpace=wrap;rounded=0;" vertex="1" parent="1">
          <mxGeometry x="594" y="344" width="60" height="30" as="geometry" />
        </mxCell>
        <mxCell id="xlgNepKT2mXGpS5i2Fq9-2" value="&lt;h3 align=&quot;center&quot;&gt;GRIDFS&lt;br&gt;&lt;/h3&gt;" style="text;whiteSpace=wrap;html=1;align=center;" vertex="1" parent="1">
          <mxGeometry x="585.25" y="301" width="77.5" height="52.5" as="geometry" />
        </mxCell>
      </root>
    </mxGraphModel>
  </diagram>
</mxfile>
